<?xml version="1.0" encoding="utf-8"?>
<!-- Generator: Adobe Illustrator 27.3.1, SVG Export Plug-In . SVG Version: 6.00 Build 0)  -->
<svg version="1.1" id="Layer_1" xmlns="http://www.w3.org/2000/svg" xmlns:xlink="http://www.w3.org/1999/xlink" x="0px" y="0px"
	 viewBox="0 0 25 25" style="enable-background:new 0 0 25 25;" xml:space="preserve">
<path d="M16.8,10c0,0.4,0,0.8,0,1.2c-1.2,0-2.4,0-3.7,0c0,3.6,0,7.2,0,10.9c0.5-0.1,0.9-0.1,1.4-0.2c3.6-0.9,6-3.1,7.2-6.6
	c0,0,0-0.1,0-0.1c0.1-0.3,0.3-0.5,0.6-0.5c0.3,0,0.5,0.2,0.6,0.6c0.1,0.6,0.2,1.2,0.2,1.8c0,0.3,0.1,0.6,0.1,1
	c-0.4,0.1-0.8,0.1-1.2,0.2c0-0.2-0.1-0.3-0.1-0.5c-2.2,3.6-5.3,5.6-9.6,5.6c-4.2,0-7.4-2-9.5-5.6c0,0.1,0,0.2,0,0.2
	c0,0.1,0,0.1,0,0.2c-0.4-0.1-0.8-0.1-1.2-0.2c0.1-0.4,0.1-0.8,0.2-1.3c0.1-0.5,0.1-1,0.2-1.6c0-0.3,0.3-0.5,0.6-0.5
	c0.3,0,0.5,0.1,0.6,0.4c0,0.1,0.1,0.2,0.1,0.3c0.3,1.1,0.8,2.1,1.5,3c1.8,2.2,4.1,3.5,6.9,3.8c0,0,0.1,0,0.1,0c0-3.6,0-7.2,0-10.9
	c-1.2,0-2.4,0-3.7,0c0-0.4,0-0.8,0-1.2c1.2,0,2.5,0,3.7,0c0-0.1,0-0.2,0-0.3c0-1,0-2,0-3c0-0.2-0.1-0.3-0.2-0.4
	C10.6,6.1,10,5.1,10,4c0.1-1.1,0.9-2,1.9-2.2c1.2-0.3,2.5,0.5,2.9,1.7c0.4,1.2-0.3,2.5-1.5,3c-0.2,0.1-0.3,0.2-0.3,0.4
	c0,0.9,0,1.9,0,2.8c0,0.1,0,0.2,0,0.3C14.3,10,15.6,10,16.8,10z M13.8,4.1c0-0.7-0.6-1.3-1.3-1.3c-0.7,0-1.3,0.6-1.3,1.2
	c0,0.7,0.6,1.3,1.3,1.3C13.2,5.4,13.8,4.8,13.8,4.1z"/>
</svg>
