<?xml version="1.0" encoding="utf-8"?>
<!-- Generator: Adobe Illustrator 27.3.1, SVG Export Plug-In . SVG Version: 6.00 Build 0)  -->
<svg version="1.1" id="Layer_1" xmlns="http://www.w3.org/2000/svg" xmlns:xlink="http://www.w3.org/1999/xlink" x="0px" y="0px"
	 viewBox="0 0 25 25" style="enable-background:new 0 0 25 25;" xml:space="preserve">
<g>
	<path d="M19.7,12c-0.5-0.7-0.9-1.3-1.3-2c-0.1-0.1-0.1-0.2-0.2-0.3c-0.1-0.2,0-0.4,0.1-0.5c0.1-0.2,0.3-0.2,0.5-0.1
		c0.1,0,0.1,0.1,0.2,0.1c1.6,0.9,3.2,1.8,4.8,2.8c0.5,0.3,0.5,0.7,0,1c-1.6,0.9-3.2,1.8-4.8,2.8c-0.2,0.1-0.4,0.2-0.6,0.1
		c-0.3-0.2-0.3-0.5-0.1-0.8c0.4-0.6,0.8-1.2,1.3-1.8c0-0.1,0.1-0.1,0.1-0.2c-0.1,0-0.2,0-0.3,0c-5.9,0-11.9,0-17.8,0
		c-0.5,0-0.7-0.2-0.7-0.5c0-0.3,0.2-0.5,0.7-0.5c5.9,0,11.9,0,17.8,0C19.4,12,19.5,12,19.7,12z"/>
</g>
</svg>
