<?xml version="1.0" encoding="utf-8"?>
<!-- Generator: Adobe Illustrator 27.3.1, SVG Export Plug-In . SVG Version: 6.00 Build 0)  -->
<svg version="1.1" id="Layer_1" xmlns="http://www.w3.org/2000/svg" xmlns:xlink="http://www.w3.org/1999/xlink" x="0px" y="0px"
	 viewBox="0 0 25 25" style="enable-background:new 0 0 25 25;" xml:space="preserve">
<g>
	<path d="M11.2,0.5c0.5,0.1,1,0.1,1.4,0.2c3.8,0.8,6.8,3.9,7.4,7.8c0.5,2.9-0.2,5.4-2,7.7c0,0-0.1,0.1-0.1,0.1c0,0,0,0,0,0.1
		c0.7,0.7,1.3,1.4,2,2.1c1.2,1.3,2.4,2.5,3.6,3.8c0.5,0.6,0.5,1.3,0,1.8c-0.5,0.5-1.3,0.5-1.8-0.1c-1.8-1.9-3.7-3.8-5.5-5.7
		c-0.1-0.1-0.1-0.1-0.2-0.2c-0.2,0.1-0.4,0.2-0.5,0.3c-5.6,3.4-13,0.3-14.4-6.1c-1-4.6,1.3-9.2,5.6-11c0.9-0.4,1.9-0.7,3-0.7
		c0.1,0,0.1,0,0.2,0C10.4,0.5,10.8,0.5,11.2,0.5z M10.6,17.3c3.9,0,7.1-3.2,7.1-7.1c0-3.9-3.2-7.1-7.1-7.2c-3.9,0-7.2,3.2-7.2,7.1
		C3.4,14.1,6.6,17.3,10.6,17.3z"/>
</g>
</svg>
