<?xml version="1.0" encoding="utf-8"?>
<!-- Generator: Adobe Illustrator 27.3.1, SVG Export Plug-In . SVG Version: 6.00 Build 0)  -->
<svg version="1.1" id="Layer_1" xmlns="http://www.w3.org/2000/svg" xmlns:xlink="http://www.w3.org/1999/xlink" x="0px" y="0px"
	 viewBox="0 0 25 25" style="enable-background:new 0 0 25 25;" xml:space="preserve">
<g>
	<path d="M23.6,5.4c-0.1,0.5-0.4,0.8-0.8,1.2c-0.6,0.6-1.2,1.2-1.8,1.8c-0.1,0.1-0.1,0.1-0.2,0.1c-1.5-1.5-3-3-4.5-4.5
		c0,0,0.1-0.1,0.1-0.1c0.6-0.6,1.1-1.1,1.7-1.7c0.9-0.9,2.1-0.9,3,0c0.6,0.5,1.1,1.1,1.7,1.6c0.3,0.3,0.6,0.7,0.7,1.1
		C23.6,5.1,23.6,5.3,23.6,5.4z"/>
	<path d="M19.6,9.7c-3.8,3.8-7.6,7.6-11.3,11.3c-1.5-1.5-3-3-4.5-4.4C7.6,12.8,11.4,9,15.2,5.2C16.7,6.7,18.2,8.2,19.6,9.7z"/>
	<path d="M2.6,17.9c1.5,1.5,3,3,4.5,4.4c-0.5,0.1-1.1,0.3-1.6,0.4c-1.1,0.3-2.1,0.5-3.2,0.8c-0.6,0.1-0.9-0.1-0.7-0.7
		C1.8,21.1,2.2,19.5,2.6,17.9C2.6,17.9,2.6,17.9,2.6,17.9z"/>
</g>
</svg>
