<?xml version="1.0" encoding="utf-8"?>
<!-- Generator: Adobe Illustrator 27.3.1, SVG Export Plug-In . SVG Version: 6.00 Build 0)  -->
<svg version="1.1" id="Layer_1" xmlns="http://www.w3.org/2000/svg" xmlns:xlink="http://www.w3.org/1999/xlink" x="0px" y="0px"
	 viewBox="0 0 25 25" style="enable-background:new 0 0 25 25;" xml:space="preserve">
<g>
	<path d="M23,15.9c-0.7-0.2-1.4-0.5-2.1-0.7c0.7-2.4,0.5-4.7-0.7-7c-0.9-1.7-2.3-2.9-4-3.7C12.7,2.9,8.6,3.7,6,6.5
		c-2.6,2.8-3,6.9-1.2,10.2c1.7,3.1,5.7,5.5,10.4,4.1c0.2,0.7,0.5,1.4,0.7,2c-3.3,1.2-8.6,0.6-11.9-3.5C0.5,15.1,0.7,9.2,4.3,5.1
		c3.5-3.9,9.5-4.8,14-2C23,6.1,24.4,11.6,23,15.9z"/>
	<path d="M13.8,16.7c0.2,0.7,0.5,1.4,0.7,2.1C12.3,19.5,9,19,7.1,16.3c-1.8-2.6-1.5-6.1,0.7-8.4C10,5.6,13.5,5.2,16.2,7
		c2.8,1.9,3.4,5.2,2.6,7.5c-0.7-0.2-1.4-0.5-2.1-0.7c0.4-2.4-0.3-4.2-2.2-5.2C12.8,7.7,10.7,8,9.3,9.4c-1.3,1.4-1.6,3.5-0.7,5.2
		C9.4,16,11.3,17.4,13.8,16.7z"/>
	<path d="M21.6,17.7c-0.4,0.4-0.8,0.7-1.2,1.1c1,1,2,2,3,3c-0.5,0.5-1.1,1-1.6,1.6c-1-1-2-2-3-3c-0.4,0.4-0.8,0.8-1.2,1.2
		c-0.7-2-1.3-3.9-2-5.9C17.8,16.5,19.7,17.1,21.6,17.7z"/>
	<path d="M10.3,12.5c0-1.2,1-2.2,2.2-2.2c1.2,0,2.2,1,2.2,2.2c0,1.2-1,2.2-2.2,2.2C11.3,14.7,10.3,13.7,10.3,12.5z"/>
</g>
</svg>
