<svg xmlns="http://www.w3.org/2000/svg" width="32" height="32" viewBox="0 0 32 32" fill="none"><g clip-path="url(#clip0_68_1693)"><mask id="mask0_68_1693" style="mask-type:luminance" maskUnits="userSpaceOnUse" x="-1" y="0" width="33" height="32"><path d="M-0.00585938 1.90735e-06H31.9941V32H-0.00585938V1.90735e-06Z" fill="white"></path></mask><g mask="url(#mask0_68_1693)"><path d="M17.8691 6.625C17.8691 7.6605 17.0296 8.5 15.9941 8.5C14.9586 8.5 14.1191 7.6605 14.1191 6.625C14.1191 5.58944 14.9586 4.75 15.9941 4.75C17.0296 4.75 17.8691 5.58944 17.8691 6.625Z" stroke="#A12844" stroke-width="1.2" stroke-miterlimit="10"></path><path d="M1.86914 6.625H14.1191" stroke="#A12844" stroke-width="1.2" stroke-miterlimit="10"></path><path d="M17.8691 6.625H30.1191" stroke="#A12844" stroke-width="1.2" stroke-miterlimit="10"></path><path d="M19.7442 27.3125C19.7442 25.2414 18.0653 23.5625 15.9942 23.5625C13.9231 23.5625 12.2441 25.2414 12.2441 27.3125" stroke="#A12844" stroke-width="1.2" stroke-miterlimit="10"></path><path d="M8.49414 31.0625H23.4942C23.4941 28.9914 21.8153 27.3125 19.7442 27.3125H12.2441C10.1731 27.3125 8.49414 28.9914 8.49414 31.0625Z" stroke="#A12844" stroke-width="1.2" stroke-miterlimit="10"></path><path d="M15.9941 5.66244e-07V4.75" stroke="#A12844" stroke-width="1.2" stroke-miterlimit="10"></path><path d="M15.9941 8.5V23.5625" stroke="#A12844" stroke-width="1.2" stroke-miterlimit="10"></path><path d="M5.61914 6.625L0.931641 17.875C0.931641 19.9461 2.61058 21.625 4.68164 21.625H6.55664C8.6277 21.625 10.3066 19.9461 10.3066 17.875L5.61914 6.625Z" stroke="#A12844" stroke-width="1.2" stroke-miterlimit="10"></path><path d="M0.931641 17.875H10.3066" stroke="#A12844" stroke-width="1.2" stroke-miterlimit="10"></path><path d="M26.3691 6.625L21.6816 17.875C21.6816 19.9461 23.3606 21.625 25.4316 21.625H27.3066C29.3777 21.625 31.0566 19.9461 31.0566 17.875L26.3691 6.625Z" stroke="#A12844" stroke-width="1.2" stroke-miterlimit="10"></path><path d="M21.6816 17.875H31.0566" stroke="#A12844" stroke-width="1.2" stroke-miterlimit="10"></path></g></g><defs><clipPath id="clip0_68_1693"><rect width="32" height="32" fill="white"></rect></clipPath></defs></svg>