<svg xmlns="http://www.w3.org/2000/svg" width="32" height="32" viewBox="0 0 32 32" fill="none"><g clip-path="url(#clip0_68_1727)"><mask id="mask0_68_1727" style="mask-type:luminance" maskUnits="userSpaceOnUse" x="-1" y="0" width="33" height="33"><path d="M-0.00390625 0.000490189H31.9961V32.0005H-0.00390625V0.000490189Z" fill="white"></path></mask><g mask="url(#mask0_68_1727)"><path d="M31.0586 7.46476C31.0586 6.93207 30.8472 6.42145 30.4702 6.04482C30.0936 5.66776 29.583 5.45639 29.0502 5.45639H2.94197C2.40922 5.45639 1.89859 5.66776 1.52203 6.04482C1.14497 6.42145 0.933594 6.93207 0.933594 7.46476V24.5356C0.933594 25.0683 1.14497 25.5789 1.52203 25.9555C1.89859 26.3326 2.40922 26.5439 2.94197 26.5439H29.0502C29.583 26.5439 30.0936 26.3326 30.4702 25.9555C30.8472 25.5789 31.0586 25.0683 31.0586 24.5356V7.46476Z" stroke="#A12844" stroke-width="1.2" stroke-miterlimit="10" stroke-linecap="round" stroke-linejoin="round"></path><path d="M9.97131 13.4899C11.3571 13.4899 12.4817 14.6146 12.4817 16.0003C12.4817 17.3861 11.3571 18.5107 9.97131 18.5107C8.58556 18.5107 7.46094 17.3861 7.46094 16.0003C7.46094 14.6146 8.58556 13.4899 9.97131 13.4899Z" stroke="#A12844" stroke-width="1.2" stroke-miterlimit="10" stroke-linecap="round" stroke-linejoin="round"></path><path d="M9.97177 18.5107C12.1885 18.5107 13.9885 20.3106 13.9885 22.5273H5.95508C5.95508 20.3106 7.75508 18.5107 9.97177 18.5107Z" stroke="#A12844" stroke-width="1.2" stroke-miterlimit="10" stroke-linecap="round" stroke-linejoin="round"></path><path d="M19.0098 14.4941H26.039" stroke="#A12844" stroke-width="1.2" stroke-miterlimit="10" stroke-linecap="round" stroke-linejoin="round"></path><path d="M5.95508 9.47314H26.0385" stroke="#A12844" stroke-width="1.2" stroke-miterlimit="10" stroke-linecap="round" stroke-linejoin="round"></path><path d="M19.0098 18.5107H26.039" stroke="#A12844" stroke-width="1.2" stroke-miterlimit="10" stroke-linecap="round" stroke-linejoin="round"></path><path d="M19.0098 22.5273H24.0306" stroke="#A12844" stroke-width="1.2" stroke-miterlimit="10" stroke-linecap="round" stroke-linejoin="round"></path></g></g><defs><clipPath id="clip0_68_1727"><rect width="32" height="32" fill="white"></rect></clipPath></defs></svg>