<svg xmlns="http://www.w3.org/2000/svg" width="32" height="33" viewBox="0 0 32 33" fill="none"><g clip-path="url(#clip0_73_3197)"><mask id="mask0_73_3197" style="mask-type:luminance" maskUnits="userSpaceOnUse" x="0" y="2" width="33" height="33"><path d="M0.015625 2.34863H32.0156V34.3486H0.015625V2.34863Z" fill="white"></path></mask><g mask="url(#mask0_73_3197)"><path d="M6.64062 7.12988C6.64062 8.16545 5.80113 9.00488 4.76562 9.00488C3.73012 9.00488 2.89062 8.16545 2.89062 7.12988C2.89062 6.09432 3.73012 5.25488 4.76562 5.25488C5.80113 5.25488 6.64062 6.09432 6.64062 7.12988Z" stroke="#A12844" stroke-width="1.5" stroke-miterlimit="10" stroke-linecap="round" stroke-linejoin="round"></path><path d="M17.8906 7.12988C17.8906 8.16545 17.0511 9.00488 16.0156 9.00488C14.9801 9.00488 14.1406 8.16545 14.1406 7.12988C14.1406 6.09432 14.9801 5.25488 16.0156 5.25488C17.0511 5.25488 17.8906 6.09432 17.8906 7.12988Z" stroke="#A12844" stroke-width="1.5" stroke-miterlimit="10" stroke-linecap="round" stroke-linejoin="round"></path><path d="M31.0781 7.03613C31.0781 9.1072 29.3993 10.7861 27.3281 10.7861C25.2571 10.7861 23.5781 9.1072 23.5781 7.03613C23.5781 4.96507 25.2571 3.28613 27.3281 3.28613C29.3993 3.28613 31.0781 4.96507 31.0781 7.03613Z" stroke="#A12844" stroke-width="1.5" stroke-miterlimit="10" stroke-linecap="round" stroke-linejoin="round"></path><path d="M17.8906 18.3799C17.8906 19.4154 17.0511 20.2549 16.0156 20.2549C14.9801 20.2549 14.1406 19.4154 14.1406 18.3799C14.1406 17.3443 14.9801 16.5049 16.0156 16.5049C17.0511 16.5049 17.8906 17.3443 17.8906 18.3799Z" stroke="#A12844" stroke-width="1.5" stroke-miterlimit="10" stroke-linecap="round" stroke-linejoin="round"></path><path d="M8.45312 18.3799C8.45312 20.4509 6.77425 22.1299 4.70312 22.1299C2.63206 22.1299 0.953125 20.4509 0.953125 18.3799C0.953125 16.3088 2.63206 14.6299 4.70312 14.6299C6.77425 14.6299 8.45312 16.3088 8.45312 18.3799Z" stroke="#A12844" stroke-width="1.5" stroke-miterlimit="10" stroke-linecap="round" stroke-linejoin="round"></path><path d="M31.0781 18.3486C31.0781 20.4197 29.3993 22.0986 27.3281 22.0986C25.2571 22.0986 23.5781 20.4197 23.5781 18.3486C23.5781 16.2776 25.2571 14.5986 27.3281 14.5986C29.3993 14.5986 31.0781 16.2776 31.0781 18.3486Z" stroke="#A12844" stroke-width="1.5" stroke-miterlimit="10" stroke-linecap="round" stroke-linejoin="round"></path><path d="M6.64062 29.6611C6.64062 30.6967 5.80113 31.5361 4.76562 31.5361C3.73012 31.5361 2.89062 30.6967 2.89062 29.6611C2.89062 28.6256 3.73012 27.7861 4.76562 27.7861C5.80113 27.7861 6.64062 28.6256 6.64062 29.6611Z" stroke="#A12844" stroke-width="1.5" stroke-miterlimit="10" stroke-linecap="round" stroke-linejoin="round"></path><path d="M19.7656 29.6611C19.7656 31.7322 18.0868 33.4111 16.0156 33.4111C13.9446 33.4111 12.2656 31.7322 12.2656 29.6611C12.2656 27.5901 13.9446 25.9111 16.0156 25.9111C18.0868 25.9111 19.7656 27.5901 19.7656 29.6611Z" stroke="#A12844" stroke-width="1.5" stroke-miterlimit="10" stroke-linecap="round" stroke-linejoin="round"></path><path d="M29.2031 29.5986C29.2031 30.6342 28.3636 31.4736 27.3281 31.4736C26.2926 31.4736 25.4531 30.6342 25.4531 29.5986C25.4531 28.5631 26.2926 27.7236 27.3281 27.7236C28.3636 27.7236 29.2031 28.5631 29.2031 29.5986Z" stroke="#A12844" stroke-width="1.5" stroke-miterlimit="10" stroke-linecap="round" stroke-linejoin="round"></path><path d="M7.35938 21.0313L13.3686 27.0093" stroke="#A12844" stroke-width="1.5" stroke-miterlimit="10" stroke-linecap="round" stroke-linejoin="round"></path><path d="M18.6641 27.0093L24.6732 21.0001" stroke="#A12844" stroke-width="1.5" stroke-miterlimit="10" stroke-linecap="round" stroke-linejoin="round"></path><path d="M27.3281 10.7861V14.5986" stroke="#A12844" stroke-width="1.5" stroke-miterlimit="10" stroke-linecap="round" stroke-linejoin="round"></path><path d="M14.6944 8.45553L7.35938 15.728" stroke="#A12844" stroke-width="1.5" stroke-miterlimit="10" stroke-linecap="round" stroke-linejoin="round"></path><path d="M4.70312 22.1299L4.76562 27.7861" stroke="#A12844" stroke-width="1.5" stroke-miterlimit="10" stroke-linecap="round" stroke-linejoin="round"></path><path d="M6.64062 29.6611H12.2657" stroke="#A12844" stroke-width="1.5" stroke-miterlimit="10" stroke-linecap="round" stroke-linejoin="round"></path></g></g><defs><clipPath id="clip0_73_3197"><rect width="32" height="32" fill="white" transform="translate(0 0.349609)"></rect></clipPath></defs></svg>