<svg xmlns="http://www.w3.org/2000/svg" width="32" height="33" viewBox="0 0 32 33" fill="none"><g clip-path="url(#clip0_73_3292)"><mask id="mask0_73_3292" style="mask-type:luminance" maskUnits="userSpaceOnUse" x="0" y="2" width="33" height="33"><path d="M0.0078125 2.3501H32.0078V34.3501H0.0078125V2.3501Z" fill="white"></path></mask><g mask="url(#mask0_73_3292)"><path d="M30.7578 23.6001C30.7578 24.9808 29.6386 26.1001 28.2578 26.1001H3.75781C2.37706 26.1001 1.25781 24.9808 1.25781 23.6001V6.1001C1.25781 4.71941 2.37706 3.6001 3.75781 3.6001H28.2578C29.6386 3.6001 30.7578 4.71941 30.7578 6.1001V23.6001Z" stroke="#A12844" stroke-width="1.5" stroke-miterlimit="10"></path><path d="M18.5078 26.1001V28.1001C18.5078 30.8615 20.7464 33.1001 23.5078 33.1001" stroke="#A12844" stroke-width="1.5" stroke-miterlimit="10"></path><path d="M8.50781 33.1001C11.2692 33.1001 13.5078 30.8615 13.5078 28.1001V26.1001" stroke="#A12844" stroke-width="1.5" stroke-miterlimit="10"></path><path d="M11.0078 11.1001C11.0078 12.4808 9.88856 13.6001 8.50781 13.6001C7.12706 13.6001 6.00781 12.4808 6.00781 11.1001C6.00781 9.71941 7.12706 8.6001 8.50781 8.6001C9.88856 8.6001 11.0078 9.71941 11.0078 11.1001Z" stroke="#A12844" stroke-width="1.5" stroke-miterlimit="10"></path><path d="M18.5078 18.6001C18.5078 19.9808 17.3886 21.1001 16.0078 21.1001C14.6271 21.1001 13.5078 19.9808 13.5078 18.6001C13.5078 17.2194 14.6271 16.1001 16.0078 16.1001C17.3886 16.1001 18.5078 17.2194 18.5078 18.6001Z" stroke="#A12844" stroke-width="1.5" stroke-miterlimit="10"></path><path d="M26.0078 11.1001C26.0078 12.4808 24.8886 13.6001 23.5078 13.6001C22.1271 13.6001 21.0078 12.4808 21.0078 11.1001C21.0078 9.71941 22.1271 8.6001 23.5078 8.6001C24.8886 8.6001 26.0078 9.71941 26.0078 11.1001Z" stroke="#A12844" stroke-width="1.5" stroke-miterlimit="10"></path><path d="M10.2734 12.8675L14.2379 16.832" stroke="#A12844" stroke-width="1.5" stroke-miterlimit="10"></path><path d="M17.7734 16.832L21.7379 12.8675" stroke="#A12844" stroke-width="1.5" stroke-miterlimit="10"></path></g></g><defs><clipPath id="clip0_73_3292"><rect width="32" height="32" fill="white" transform="translate(0 0.349609)"></rect></clipPath></defs></svg>