<svg xmlns="http://www.w3.org/2000/svg" width="32" height="33" viewBox="0 0 32 33" fill="none"><g clip-path="url(#clip0_73_3239)"><mask id="mask0_73_3239" style="mask-type:luminance" maskUnits="userSpaceOnUse" x="0" y="2" width="33" height="33"><path d="M0.0078125 2.3501H32.0078V34.3501H0.0078125V2.3501Z" fill="white"></path></mask><g mask="url(#mask0_73_3239)"><path d="M12.9891 6.30018C12.9891 4.63636 14.3378 3.28749 16.0016 3.28749C17.6652 3.28749 19.0139 4.63636 19.0139 6.30018H22.0266V8.81043C22.0266 10.1912 20.8968 11.3208 19.5162 11.3208H12.487C11.1062 11.3208 9.97656 10.1912 9.97656 8.81043V6.30018H12.9891Z" stroke="#A12844" stroke-width="1.5" stroke-miterlimit="10" stroke-linecap="round" stroke-linejoin="round"></path><path d="M12.9905 6.30029H7.46747C6.08672 6.30029 4.95703 7.42991 4.95703 8.81054V30.9022C4.95703 32.2829 6.08672 33.4126 7.46747 33.4126H24.5382C25.919 33.4126 27.0486 32.2829 27.0486 30.9022V8.81054C27.0486 7.42991 25.919 6.30029 24.5382 6.30029H19.0159" stroke="#A12844" stroke-width="1.5" stroke-miterlimit="10" stroke-linecap="round" stroke-linejoin="round"></path><path d="M11.9853 27.3872L9.97697 29.3955L8.97266 28.3914" stroke="#A12844" stroke-width="1.5" stroke-miterlimit="10" stroke-linecap="round" stroke-linejoin="round"></path><path d="M11.9853 21.3622L9.97697 23.3706L8.97266 22.3666" stroke="#A12844" stroke-width="1.5" stroke-miterlimit="10" stroke-linecap="round" stroke-linejoin="round"></path><path d="M11.9853 15.3378L9.97697 17.3462L8.97266 16.3419" stroke="#A12844" stroke-width="1.5" stroke-miterlimit="10" stroke-linecap="round" stroke-linejoin="round"></path><path d="M16.0078 29.3955H23.0367" stroke="#A12844" stroke-width="1.5" stroke-miterlimit="10" stroke-linecap="round" stroke-linejoin="round"></path><path d="M16.0078 23.3706H23.0367" stroke="#A12844" stroke-width="1.5" stroke-miterlimit="10" stroke-linecap="round" stroke-linejoin="round"></path><path d="M16.0078 17.3462H23.0367" stroke="#A12844" stroke-width="1.5" stroke-miterlimit="10" stroke-linecap="round" stroke-linejoin="round"></path></g></g><defs><clipPath id="clip0_73_3239"><rect width="32" height="32" fill="white" transform="translate(0 0.349609)"></rect></clipPath></defs></svg>