<svg xmlns="http://www.w3.org/2000/svg" width="524" height="465" viewBox="0 0 524 465" fill="none"><path d="M0 0H524V465H0V0Z" fill="#282F35"></path><path d="M369.587 251.08C367.837 250.102 368.97 248.763 368.97 248.763L372.315 244.645C373.036 243.77 373.963 243.873 374.683 244.234C382.301 248.094 392.544 249.072 399.957 248.094C406.339 247.219 407.472 244.491 407.472 242.072C407.472 238.675 404.229 237.542 404.229 237.542C402.273 236.513 394.5 236.049 384.875 235.02C375.249 234.042 369.742 229.358 369.742 221.946C369.742 217.365 371.595 214.276 375.816 211.497C380.242 208.563 398.104 204.342 415.862 213.967C417.509 214.791 416.48 216.284 416.48 216.284L413.134 220.402C412.413 221.225 411.435 221.122 410.766 220.813C405.567 217.982 397.795 216.541 390.434 216.593C379.161 216.901 379.161 220.453 379.161 221.997C379.161 223.747 379.161 225.909 386.162 226.681L399.39 228.123C411.795 229.461 417.046 234.299 416.84 242.432C416.583 250.565 411.435 253.756 404.589 255.661C404.641 255.764 386.677 260.654 369.587 251.08Z" fill="#D7F0FF"></path><path d="M254.03 256.947H247.544C246.721 256.947 246 256.278 246 255.455V209.746C246 208.923 246.669 208.202 247.544 208.202H254.03C254.853 208.202 255.523 208.871 255.523 209.746V255.455C255.523 256.278 254.853 256.947 254.03 256.947Z" fill="#D7F0FF"></path><path d="M200.6 239.189C219.697 260.036 237.301 256.742 237.301 256.742C238.124 256.742 238.794 256.073 238.794 255.249V249.381C238.794 248.557 238.124 247.888 237.301 247.888C237.301 247.888 226.594 248.3 218.822 243.462C211.049 238.623 206.674 232.601 206.674 232.549C206.726 232.498 211.101 226.475 218.822 221.637C226.594 216.798 237.301 217.21 237.301 217.21C238.124 217.21 238.794 216.541 238.794 215.718V209.85C238.794 209.026 238.124 208.357 237.301 208.357C237.301 208.357 219.748 205.114 200.6 225.909C181.504 205.063 163.951 208.305 163.951 208.305C163.128 208.305 162.407 208.975 162.407 209.798V215.769C162.407 216.593 163.076 217.262 163.951 217.262C163.951 217.262 174.658 216.85 182.43 221.688C190.203 226.527 194.578 232.549 194.578 232.601C194.527 232.652 190.151 238.675 182.43 243.462C174.658 248.3 163.951 247.888 163.951 247.888C163.128 247.888 162.407 248.557 162.407 249.381V255.249C162.407 256.073 163.076 256.742 163.951 256.742C163.9 256.793 181.452 260.036 200.6 239.189Z" fill="#D7F0FF"></path><path d="M303.341 212.217C298.914 209.283 281.877 204.239 264.118 214.019C262.471 214.843 263.501 216.335 263.501 216.335L266.795 220.453C267.515 221.277 268.493 221.225 269.163 220.865C274.361 218.034 281.31 216.799 288.671 216.799C299.944 217.107 300.458 221.225 300.458 222.769V228.38C298.657 227.608 296.598 227.145 294.487 227.145H276.06C267.824 227.145 261.133 233.836 261.133 242.02C261.133 246.138 262.78 249.844 265.508 252.572C268.185 255.249 271.942 256.948 276.06 256.948H294.487C302.723 256.948 309.363 250.256 309.363 242.02V222.718C309.415 218.137 307.562 214.997 303.341 212.217ZM295.002 248.609H275.597C272.148 248.609 269.317 245.675 269.317 242.072C269.317 238.469 272.148 235.535 275.597 235.535H295.002C298.451 235.535 301.282 238.469 301.282 242.072C301.282 245.675 298.451 248.609 295.002 248.609Z" fill="#D7F0FF"></path><path d="M150.208 212.217C145.781 209.283 128.744 204.239 110.985 214.019C109.338 214.843 110.368 216.335 110.368 216.335L113.662 220.453C114.383 221.277 115.361 221.225 116.03 220.865C121.229 218.034 128.178 216.799 135.538 216.799C146.811 217.107 147.326 221.225 147.326 222.769V228.38C145.524 227.608 143.465 227.145 141.355 227.145H122.927C114.692 227.145 108 233.836 108 242.02C108 246.138 109.647 249.844 112.375 252.572C115.052 255.249 118.809 256.948 122.927 256.948H141.355C149.59 256.948 156.23 250.256 156.23 242.02V222.718C156.282 218.137 154.429 214.997 150.208 212.217ZM141.869 248.609H122.464C119.015 248.609 116.184 245.675 116.184 242.072C116.184 238.469 119.015 235.535 122.464 235.535H141.869C145.318 235.535 148.149 238.469 148.149 242.072C148.098 245.675 145.318 248.609 141.869 248.609Z" fill="#D7F0FF"></path><path d="M339.784 208.202C345.138 208.202 348.329 208.717 348.329 208.717C363.874 210.673 363.411 222.357 363.411 222.357V255.352C363.411 256.175 362.741 256.845 361.866 256.845H355.947C355.123 256.845 354.403 256.175 354.403 255.352V222.357C354.403 222.357 354.609 218.085 346.321 217.365C341.432 216.953 339.733 217.056 339.733 217.056C339.733 217.056 337.983 216.953 333.144 217.365C324.857 218.085 325.063 222.357 325.063 222.357V255.352C325.063 256.175 324.394 256.845 323.519 256.845H317.599C316.776 256.845 316.055 256.175 316.055 255.352V222.357C316.055 222.357 315.592 210.673 331.137 208.717C331.291 208.717 334.431 208.202 339.784 208.202Z" fill="#D7F0FF"></path></svg>