<svg xmlns="http://www.w3.org/2000/svg" width="524" height="465" viewBox="0 0 524 465" fill="none"><path d="M0 0H524V465H0V0Z" fill="#282F35"></path><path fill-rule="evenodd" clip-rule="evenodd" d="M139.515 275.577H121C121 275.577 124.48 273.839 124.48 270.523V215.567C124.48 211.777 121 210.831 121 210.831H159.771V221.727C159.771 221.727 158.821 218.094 155.816 218.094H136.035V235.94H156.132V245.888C156.132 245.888 155.498 243.52 152.651 243.52H136.035V270.368C136.033 273.998 139.515 275.577 139.515 275.577ZM377.045 276.813C363.413 276.766 353.939 268.465 353.939 259.944V215.567C353.939 212.408 350.141 210.831 350.141 210.831H368.817C368.817 210.831 365.019 212.41 365.019 215.411V259.944C365.019 264.198 370.98 269.657 376.73 269.617C382.372 269.578 388.123 264.245 388.123 259.944V215.489C388.123 212.173 384.328 210.909 384.328 210.909H403C403 210.909 399.202 212.173 399.202 215.489V259.944C399.199 268.235 389.753 276.854 377.045 276.813ZM189.046 276.813C175.414 276.766 165.942 268.465 165.942 259.944V215.567C165.942 212.408 162.144 210.831 162.144 210.831H180.818C180.818 210.831 177.02 212.41 177.02 215.411V259.944C177.02 264.198 182.979 269.657 188.73 269.617C194.373 269.578 200.124 264.245 200.124 259.944V215.411C200.124 212.094 196.326 210.831 196.326 210.831H214.998C214.998 210.831 211.2 212.094 211.2 215.411V259.944C211.2 268.235 201.755 276.854 189.046 276.813ZM238.42 210.829C238.42 210.829 234.622 212.408 234.622 215.724V283.945C234.622 283.945 234.427 295.787 214.366 300.999C213.953 301.106 223.386 291.051 223.386 283.945C223.386 279.206 223.5 218.248 223.386 215.724C223.229 212.25 219.588 210.829 219.588 210.829H238.42ZM257.409 270.523C257.568 273.998 261.207 275.418 261.207 275.418H242.376C242.376 275.418 246.173 273.841 246.173 270.523H246.192C246.219 250.946 246.256 217.553 246.173 215.724C246.014 212.25 242.376 210.829 242.376 210.829H261.207C261.207 210.829 257.409 212.408 257.409 215.724V270.523ZM291.59 218.094V270.525C291.75 273.999 295.388 275.42 295.388 275.42H276.557C276.557 275.42 280.354 273.842 280.354 270.525H280.374C280.396 253.709 280.427 226.534 280.383 218.096H267.853C263.895 218.096 261.681 222.517 261.681 222.517L265.477 210.831H309.631L306.939 221.57C306.939 221.57 306.781 218.096 302.983 218.096L291.59 218.094ZM236.707 191.475C238.983 196.417 245.452 200.178 252.345 200.178C262.356 200.178 270.47 192.079 270.47 182.089C270.47 172.099 262.356 164 252.345 164C246.89 164 241.996 166.403 238.673 170.211L238.797 179.793C239.373 173.221 246.522 169.505 252.345 169.662C259.227 169.848 264.811 175.233 264.811 182.102C264.811 188.971 259.229 194.543 252.345 194.543C247.92 194.543 244.111 192.162 241.9 188.694L241.324 187.588C238.838 182.989 233.795 179.444 227.975 179.444C226.006 179.444 224.056 179.83 222.237 180.582C220.418 181.334 218.765 182.437 217.372 183.826C215.98 185.216 214.875 186.865 214.122 188.681C213.368 190.496 212.981 192.442 212.981 194.407C212.981 196.372 213.368 198.318 214.122 200.134C214.875 201.949 215.98 203.599 217.372 204.988C218.765 206.378 220.418 207.48 222.237 208.232C224.056 208.984 226.006 209.371 227.975 209.371C230.229 209.373 232.453 208.867 234.483 207.891C236.513 206.915 238.297 205.495 239.7 203.736V197.014L234.288 201.507C232.67 202.62 230.305 203.565 227.975 203.565C225.572 203.52 223.282 202.535 221.598 200.823C219.914 199.111 218.971 196.808 218.971 194.409C218.971 192.01 219.914 189.707 221.598 187.994C223.282 186.282 225.572 185.298 227.975 185.253C231.724 185.253 234.796 187.578 236.6 191.278L236.707 191.475ZM343.415 220.936V212.962C343.415 211.857 336.175 210.203 331.588 210.159C328.266 210.125 308.999 210.906 308.999 227.727C308.999 241.544 323.555 246.993 325.455 247.941C327.355 248.889 338.035 253.627 338.035 259.313C338.035 266.735 331.708 270.446 324.111 270.446C316.513 270.446 310.334 265.534 308.601 264.049C308.466 263.936 311.215 275.42 311.215 275.42C311.215 275.42 318.077 277.157 323.873 277.157C326.566 277.157 349.352 277.157 349.352 259.154C349.352 245.496 335.346 240.601 332.579 239.258C330.031 238.023 320.154 234.204 320.154 227.098C320.154 221.413 326.96 216.675 332.024 216.675C339.153 216.672 341.676 218.964 343.415 220.936Z" fill="#D7F0FF"></path></svg>