<svg xmlns="http://www.w3.org/2000/svg" width="524" height="465" viewBox="0 0 524 465" fill="none"><path d="M0 0H524V465H0V0Z" fill="#282F35"></path><path d="M378.342 256.288C377.905 256.288 377.614 255.997 377.614 255.56V252.359C376.014 254.978 373.103 257.016 368.156 257.016C362.335 257.016 358.26 254.251 356.66 249.012C355.787 245.956 355.35 242.755 355.496 239.553C355.35 236.352 355.787 233.151 356.66 230.095C358.406 224.711 362.335 222.091 368.156 222.091C373.249 222.091 376.014 223.983 377.614 226.748V209.431C377.614 209.286 377.614 208.995 377.76 208.995C377.905 208.849 378.051 208.849 378.196 208.849H382.707C383.144 208.849 383.435 209.14 383.435 209.577V255.56C383.435 255.706 383.435 255.997 383.289 255.997C383.144 256.142 382.998 256.142 382.853 256.142H378.342V256.288ZM376.887 246.538C377.469 244.21 377.76 241.882 377.614 239.553C377.76 237.225 377.469 234.897 376.887 232.569C375.723 229.222 373.103 227.475 369.465 227.475C366.118 227.184 363.063 229.367 362.044 232.569C361.462 234.897 361.171 237.225 361.316 239.553C361.171 241.882 361.462 244.21 362.044 246.538C363.208 249.594 366.118 251.631 369.465 251.631C372.812 251.631 375.723 249.594 376.887 246.538ZM413.266 256.288C413.121 256.288 412.83 256.288 412.83 256.142C412.684 255.997 412.684 255.851 412.684 255.706V252.795C411.083 255.269 407.882 257.161 402.789 257.161C396.386 257.161 391.584 253.814 391.584 247.12C391.584 239.99 396.532 236.789 404.681 236.789H412.248C412.539 236.789 412.684 236.643 412.684 236.352V233.733C412.684 229.076 410.938 227.184 404.681 227.184C401.77 227.039 398.86 227.912 396.532 229.513C396.241 229.804 395.804 229.804 395.513 229.513L393.621 226.311C393.476 226.02 393.476 225.584 393.767 225.293C397.114 222.964 401.188 221.8 405.117 221.946C414.576 221.946 418.214 225.147 418.214 233.296V255.56C418.214 255.706 418.214 255.997 418.068 255.997C417.923 256.142 417.777 256.142 417.486 256.142H413.266V256.288ZM412.393 245.52V241.882C412.393 241.736 412.248 241.591 412.102 241.445H411.957H405.263C399.442 241.445 396.968 243.191 396.968 246.975C396.968 250.467 399.442 252.213 403.953 252.213C409.192 252.068 412.393 249.594 412.393 245.52ZM427.09 268.948C426.654 268.948 426.363 268.657 426.363 268.22V264.146C426.363 264 426.363 263.709 426.508 263.709C426.654 263.564 426.799 263.564 426.945 263.564H428.254C431.019 263.564 432.475 262.4 433.93 258.471L435.094 255.415L422.725 223.546C422.579 223.11 422.87 222.819 423.307 222.819H428.254C428.691 222.819 428.982 223.11 429.128 223.546L438.004 247.848H438.15L446.59 223.546C446.59 223.11 447.026 222.819 447.463 222.819H452.265C452.701 222.819 452.992 223.11 452.847 223.546L439.605 259.053C436.695 266.911 434.075 269.093 428.982 269.093H427.09V268.948ZM231.369 255.56C231.078 255.56 230.787 255.415 230.641 255.124C230.641 254.978 230.641 254.978 230.641 254.833V208.558C230.641 208.413 230.641 208.122 230.787 207.976C230.932 207.83 231.078 207.83 231.223 207.83H248.103C257.271 207.83 263.237 213.506 263.237 222.091C263.237 230.677 257.271 236.352 248.103 236.352H237.19C237.044 236.352 236.899 236.497 236.753 236.643V236.789V254.833C236.753 254.978 236.753 255.269 236.608 255.415C236.462 255.56 236.317 255.56 236.171 255.56H231.369ZM257.271 222.091C257.271 216.853 253.779 213.651 247.958 213.651H237.335C237.044 213.651 236.899 213.797 236.899 214.088V230.095C236.899 230.24 237.044 230.386 237.19 230.531H237.335H247.958C253.779 230.531 257.271 227.33 257.271 222.091ZM277.935 255.851C272.114 255.851 269.786 253.087 269.786 246.975V208.558C269.786 208.267 269.931 207.976 270.222 207.83C270.368 207.83 270.368 207.83 270.513 207.83H275.024C275.315 207.83 275.606 207.976 275.752 208.267C275.752 208.413 275.752 208.413 275.752 208.558V246.684C275.752 249.449 276.77 250.467 279.099 250.467H280.408C280.699 250.467 280.99 250.613 281.136 250.904C281.136 251.049 281.136 251.049 281.136 251.195V255.269C281.136 255.415 281.136 255.706 280.99 255.706C280.845 255.851 280.699 255.851 280.408 255.851H277.935ZM307.329 255.56C307.038 255.56 306.747 255.415 306.602 255.124C306.602 254.978 306.602 254.978 306.602 254.833V251.922C305.001 254.396 301.8 256.288 296.706 256.288C290.304 256.288 285.502 252.941 285.502 246.247C285.502 239.117 290.449 235.915 298.598 235.915H306.165C306.456 235.915 306.602 235.77 306.602 235.479V233.005C306.602 228.349 304.855 226.457 298.598 226.457C295.688 226.311 292.777 227.184 290.449 228.785C290.158 229.076 289.722 229.076 289.431 228.64L287.539 225.438C287.393 225.147 287.393 224.711 287.684 224.42C291.031 222.091 295.106 220.927 299.035 221.073C308.493 221.073 312.131 224.274 312.131 232.423V254.687C312.131 254.833 312.131 255.124 311.986 255.269C311.84 255.415 311.695 255.415 311.404 255.415H307.329V255.56ZM306.602 244.646V241.009C306.602 240.863 306.456 240.718 306.311 240.572H306.165H299.471C293.651 240.572 291.177 242.318 291.177 246.102C291.177 249.594 293.651 251.34 298.162 251.34C303.4 251.34 306.602 248.867 306.602 244.646ZM343.127 255.56C342.69 255.56 342.399 255.269 342.399 254.833V235.188C342.399 229.804 339.925 226.602 334.978 226.602C330.467 226.602 327.265 229.804 327.265 234.751V254.687C327.265 254.833 327.265 255.124 327.12 255.269C326.974 255.415 326.829 255.415 326.683 255.415H322.172C321.881 255.415 321.59 255.269 321.444 254.978C321.444 254.833 321.444 254.833 321.444 254.687V222.673C321.444 222.528 321.444 222.237 321.59 222.237C321.735 222.091 321.881 222.091 322.027 222.091H326.538C326.829 222.091 327.12 222.237 327.265 222.528C327.265 222.673 327.265 222.673 327.265 222.819V225.875C328.866 223.255 332.067 221.364 336.578 221.364C343.854 221.364 348.22 226.311 348.22 234.024V254.978C348.22 255.124 348.22 255.415 348.074 255.56C347.929 255.706 347.783 255.706 347.492 255.706H343.127V255.56ZM172.289 225.438C170.979 219.472 167.923 214.088 163.703 209.722C154.972 200.846 142.021 197.644 130.234 201.573C124.413 203.465 119.32 206.957 115.391 211.614L73.9187 261.09C71.1538 264.291 71.4448 267.929 74.3552 270.403C77.4111 272.877 80.9035 272.44 83.5228 269.239L108.406 239.553L124.995 219.763L125.141 219.617C125.432 219.326 125.577 219.035 125.869 218.89L126.014 218.744C133.29 211.032 145.222 210.304 153.371 217.144C153.371 217.144 153.371 217.144 153.517 217.289C157.591 220.782 160.065 225.584 160.502 230.822C160.938 236.061 159.192 241.3 155.845 245.374C155.554 245.665 155.118 246.247 154.972 246.247C147.696 254.105 135.618 254.687 127.469 247.848C125.869 246.538 124.413 244.938 123.395 243.046C122.085 241.009 119.175 240.718 117.72 242.609L112.335 249.012C114.227 252.213 116.701 255.124 119.611 257.598C126.16 263.273 134.745 266.038 143.476 265.164C152.062 264.437 160.065 260.217 165.595 253.523C165.304 253.378 174.471 242.9 172.289 225.438Z" fill="#D7F0FF"></path><path d="M172.288 225.438L197.172 195.753C199.937 192.551 203.429 192.115 206.339 194.588C209.395 197.062 209.541 200.7 206.776 203.902L165.303 253.378C159.774 260.071 151.77 264.291 143.185 265.019C134.599 265.747 126.014 262.982 119.32 257.452C116.409 254.978 113.936 252.213 112.044 248.867L117.428 242.464C119.029 240.572 121.939 240.863 123.103 242.9C124.267 244.647 125.577 246.247 127.323 247.702C135.472 254.687 147.55 253.96 154.826 246.102C154.826 246.102 155.408 245.374 155.699 245.229L172.288 225.438Z" fill="#D7F0FF"></path></svg>