<svg xmlns="http://www.w3.org/2000/svg" width="32" height="32" viewBox="0 0 32 32" fill="none"><g clip-path="url(#clip0_72_2704)"><mask id="mask0_72_2704" style="mask-type:luminance" maskUnits="userSpaceOnUse" x="-1" y="0" width="33" height="32"><path d="M-0.00390625 1.90735e-06H31.9961V32H-0.00390625V1.90735e-06Z" fill="white"></path></mask><g mask="url(#mask0_72_2704)"><path d="M13.1919 21.9292H0.621094" stroke="#A12844" stroke-width="1.25" stroke-miterlimit="10" stroke-linecap="round" stroke-linejoin="round"></path><path d="M31.3707 21.9292H18.8164" stroke="#A12844" stroke-width="1.25" stroke-miterlimit="10" stroke-linecap="round" stroke-linejoin="round"></path></g><mask id="mask1_72_2704" style="mask-type:luminance" maskUnits="userSpaceOnUse" x="-1" y="0" width="33" height="32"><path d="M-0.00390625 1.90735e-06H31.9961V32H-0.00390625V1.90735e-06Z" fill="white"></path></mask><g mask="url(#mask1_72_2704)"><path d="M24.7461 11.0112V7.73881H23.3205C23.129 6.87875 22.7903 6.07431 22.3316 5.35338L23.3402 4.34475L21.0263 2.03088L20.0175 3.03975C19.2966 2.58131 18.4922 2.24275 17.6323 2.0515V0.625002H14.3599V2.0515C13.5 2.24275 12.6956 2.58131 11.9747 3.03975L10.9658 2.03088L8.65197 4.34475L9.66059 5.35338C9.20191 6.07431 8.86316 6.87875 8.67172 7.73881H7.24609V11.0112H8.67128C8.86247 11.8716 9.20116 12.6763 9.65978 13.3974L8.65197 14.4053L10.9658 16.7191L11.9734 15.7116C12.6946 16.1704 13.4995 16.5093 14.3599 16.7007V18.125H17.6323V16.7007C18.4927 16.5093 19.2976 16.1704 20.0188 15.7116L21.0263 16.7191L23.3402 14.4053L22.3324 13.3974C22.791 12.6763 23.1297 11.8716 23.3209 11.0112H24.7461Z" stroke="#A12844" stroke-width="1.25" stroke-miterlimit="10" stroke-linecap="round" stroke-linejoin="round"></path><path d="M15.9961 13.751C13.5798 13.751 11.6211 11.7922 11.6211 9.37598C11.6211 6.95973 13.5798 5.00098 15.9961 5.00098C18.4123 5.00098 20.3711 6.95973 20.3711 9.37598C20.3711 11.7922 18.4123 13.751 15.9961 13.751Z" stroke="#A12844" stroke-width="1.25" stroke-miterlimit="10" stroke-linecap="round" stroke-linejoin="round"></path><path d="M22.9955 4H29.3711C30.4757 4 31.3711 4.89544 31.3711 6V23.625C31.3711 24.7296 30.4757 25.625 29.3711 25.625H2.62109C1.51653 25.625 0.621094 24.7296 0.621094 23.625V6C0.621094 4.89544 1.51653 4 2.62109 4H8.99672" stroke="#A12844" stroke-width="1.25" stroke-miterlimit="10" stroke-linecap="round" stroke-linejoin="round"></path><path d="M11.9688 31.375C13.0594 30.6898 13.7214 29.4921 13.7214 28.204V25.625H18.2737V28.204C18.2737 29.4921 18.9357 30.6898 20.0264 31.375H11.9688Z" stroke="#A12844" stroke-width="1.25" stroke-miterlimit="10" stroke-linecap="round" stroke-linejoin="round"></path></g></g><defs><clipPath id="clip0_72_2704"><rect width="32" height="32" fill="white"></rect></clipPath></defs></svg>
