<svg xmlns="http://www.w3.org/2000/svg" width="32" height="32" viewBox="0 0 32 32" fill="none"><g clip-path="url(#clip0_72_2765)"><mask id="mask0_72_2765" style="mask-type:luminance" maskUnits="userSpaceOnUse" x="-1" y="0" width="33" height="32"><path d="M-0.00390625 1.90735e-06H31.9961V32H-0.00390625V1.90735e-06Z" fill="white"></path></mask><g mask="url(#mask0_72_2765)"><path d="M17.8741 12.1889C17.8741 13.2253 17.034 14.0654 15.9976 14.0654C14.9613 14.0654 14.1211 13.2253 14.1211 12.1889C14.1211 11.1526 14.9613 10.3124 15.9976 10.3124C17.034 10.3124 17.8741 11.1526 17.8741 12.1889Z" stroke="#A12844" stroke-width="1.25" stroke-miterlimit="10"></path><path d="M15.9976 17.8154C12.8952 17.8154 10.3711 15.2914 10.3711 12.1889C10.3711 9.08643 12.8952 6.56243 15.9976 6.56243C19.1 6.56243 21.6241 9.08643 21.6241 12.1889C21.6241 15.2914 19.1 17.8154 15.9976 17.8154Z" stroke="#A12844" stroke-width="1.25" stroke-miterlimit="10"></path><path d="M27.2491 12.189C27.2491 5.97531 22.1861 0.921938 15.9688 0.937563C9.78622 0.953063 4.74222 6.01356 4.7461 12.1962C4.74878 16.4008 7.0701 20.0727 10.4976 22.0014V25.5625C10.4976 28.6001 12.96 31.0625 15.9976 31.0625C19.0352 31.0625 21.4976 28.6001 21.4976 25.5625V22.0014C24.9271 20.0716 27.2491 16.3966 27.2491 12.189Z" stroke="#A12844" stroke-width="1.25" stroke-miterlimit="10"></path><path d="M15.9961 6.5625V3.74775" stroke="#A12844" stroke-width="1.25" stroke-miterlimit="10"></path><path d="M12.0177 8.21045L10.0273 6.22014" stroke="#A12844" stroke-width="1.25" stroke-miterlimit="10"></path><path d="M10.3694 12.189H7.55469" stroke="#A12844" stroke-width="1.25" stroke-miterlimit="10"></path><path d="M12.0177 16.1674L10.0273 18.1577" stroke="#A12844" stroke-width="1.25" stroke-miterlimit="10"></path><path d="M15.9961 17.8156V20.6304" stroke="#A12844" stroke-width="1.25" stroke-miterlimit="10"></path><path d="M19.9766 16.1674L21.9669 18.1577" stroke="#A12844" stroke-width="1.25" stroke-miterlimit="10"></path><path d="M21.6211 12.189H24.4358" stroke="#A12844" stroke-width="1.25" stroke-miterlimit="10"></path><path d="M19.9766 8.21045L21.9669 6.22007" stroke="#A12844" stroke-width="1.25" stroke-miterlimit="10"></path><path d="M10.4961 24.8076H21.4961" stroke="#A12844" stroke-width="1.25" stroke-miterlimit="10"></path></g></g><defs><clipPath id="clip0_72_2765"><rect width="32" height="32" fill="white"></rect></clipPath></defs></svg>