<svg xmlns="http://www.w3.org/2000/svg" width="32" height="32" viewBox="0 0 32 32" fill="none"><g clip-path="url(#clip0_1_2121)"><mask id="mask0_1_2121" style="mask-type:luminance" maskUnits="userSpaceOnUse" x="-1" y="0" width="33" height="32"><path d="M-0.00390625 1.90735e-06H31.9961V32H-0.00390625V1.90735e-06Z" fill="white"></path></mask><g mask="url(#mask0_1_2121)"><path d="M23.494 16C23.494 15.3064 23.3688 14.6474 23.1917 14.0094L25.0505 12.9363L23.1755 9.68869L21.3369 10.7502C20.3992 9.79606 19.2024 9.11294 17.869 8.76631V6.625H14.119V8.76631C12.7856 9.11294 11.5887 9.79606 10.6511 10.7502L8.8125 9.68869L6.9375 12.9363L8.79625 14.0094C8.61919 14.6474 8.494 15.3064 8.494 16C8.494 16.6936 8.61919 17.3526 8.79625 17.9906L6.9375 19.0637L8.8125 22.3113L10.6511 21.2498C11.5887 22.2039 12.7856 22.8871 14.119 23.2337V25.375H17.869V23.2337C19.2024 22.8871 20.3992 22.2039 21.3369 21.2498L23.1755 22.3113L25.0505 19.0637L23.1917 17.9906C23.3688 17.3526 23.494 16.6936 23.494 16Z" stroke="#A12844" stroke-width="1.25" stroke-miterlimit="10" stroke-linecap="round" stroke-linejoin="round"></path><path d="M15.9961 19.75C13.9279 19.75 12.2461 18.0682 12.2461 16C12.2461 13.9318 13.9279 12.25 15.9961 12.25C18.0643 12.25 19.7461 13.9318 19.7461 16C19.7461 18.0682 18.0643 19.75 15.9961 19.75Z" stroke="#A12844" stroke-width="1.25" stroke-miterlimit="10" stroke-linecap="round" stroke-linejoin="round"></path><path d="M2.09047 21.625C1.38491 19.8871 0.933594 17.9881 0.933594 16C0.933594 7.72913 7.72522 0.937502 15.9961 0.937502C20.7336 0.937502 25.1776 3.27856 27.9285 6.71925" stroke="#A12844" stroke-width="1.25" stroke-miterlimit="10" stroke-linecap="round" stroke-linejoin="round"></path><path d="M29.9006 10.375C30.6061 12.1129 31.0574 14.0119 31.0574 16C31.0574 24.2709 24.2658 31.0625 15.9949 31.0625C11.2574 31.0625 6.81344 28.7214 4.0625 25.2808" stroke="#A12844" stroke-width="1.25" stroke-miterlimit="10" stroke-linecap="round" stroke-linejoin="round"></path><path d="M26.6048 2.74174L27.9306 6.71924L23.9531 5.39336" stroke="#A12844" stroke-width="1.25" stroke-miterlimit="10" stroke-linecap="round" stroke-linejoin="round"></path><path d="M8.04 26.6067L4.0625 25.2809L5.38831 29.2583" stroke="#A12844" stroke-width="1.25" stroke-miterlimit="10" stroke-linecap="round" stroke-linejoin="round"></path></g></g><defs><clipPath id="clip0_1_2121"><rect width="32" height="32" fill="white"></rect></clipPath></defs></svg>