<svg xmlns="http://www.w3.org/2000/svg" width="32" height="32" viewBox="0 0 32 32" fill="none"><g clip-path="url(#clip0_72_2758)"><path d="M6.375 25.1875V12.625C6.375 9.86356 8.61356 7.625 11.375 7.625H25.75C28.5114 7.625 30.75 9.86356 30.75 12.625V13.9375M13.6875 30.75H7.5C4.04825 30.75 1.25 27.9518 1.25 24.5V7.5C1.25 4.04825 4.04825 1.25 7.5 1.25H12.6875C14.5284 1.25 16.2312 2.04594 17.375 3.3125M23.5625 21V23.5625H25.6868M30.75 23.5625C30.75 27.5321 27.5321 30.75 23.5625 30.75C19.5929 30.75 16.375 27.5321 16.375 23.5625C16.375 19.5929 19.5929 16.375 23.5625 16.375C27.5321 16.375 30.75 19.5929 30.75 23.5625Z" stroke="#A12844" stroke-width="1.25" stroke-miterlimit="10" stroke-linecap="round" stroke-linejoin="round"></path></g><defs><clipPath id="clip0_72_2758"><rect width="32" height="32" fill="white"></rect></clipPath></defs></svg>