<?xml version="1.0" encoding="UTF-8"?>
<svg xmlns="http://www.w3.org/2000/svg" width="48" height="48" viewBox="0 0 48 48" fill="none">
  <circle cx="24" cy="24" r="24" fill="#A5253D"></circle>
  <path d="M16 29.1807C16.9155 27.6536 18.9221 26.6084 22.0526 26.6084C25.1831 26.6084 27.1897 27.6536 28.1052 29.1807M28.6844 25.4505C30.3422 26.2794 31.1711 27.1083 32 28.7661M26.9602 19.1147C27.7402 19.5343 28.2705 20.3583 28.2705 21.3061C28.2705 22.2265 27.7704 23.0302 27.0272 23.4601M24.5393 21.3061C24.5393 22.6794 23.426 23.7928 22.0526 23.7928C20.6792 23.7928 19.5659 22.6794 19.5659 21.3061C19.5659 19.9327 20.6792 18.8193 22.0526 18.8193C23.426 18.8193 24.5393 19.9327 24.5393 21.3061Z" stroke="white" stroke-width="2" stroke-linecap="round"></path>
</svg>
