<svg xmlns="http://www.w3.org/2000/svg" width="32" height="32" viewBox="0 0 32 32" fill="none"><g clip-path="url(#clip0_1_2101)"><mask id="mask0_1_2101" style="mask-type:luminance" maskUnits="userSpaceOnUse" x="-1" y="0" width="33" height="33"><path d="M-0.00390625 0.000490189H31.9961V32.0005H-0.00390625V0.000490189Z" fill="white"></path></mask><g mask="url(#mask0_1_2101)"><path d="M15.9961 23.5004C12.8895 23.5004 10.3711 20.982 10.3711 17.8754V12.2504H21.6211V17.8754C21.6211 20.982 19.1027 23.5004 15.9961 23.5004Z" stroke="#A12844" stroke-width="1.25" stroke-miterlimit="10"></path><path d="M12.2461 12.2504V8.43787C12.2461 6.3668 13.925 4.68787 15.9961 4.68787C18.0672 4.68787 19.7461 6.3668 19.7461 8.43787V12.2504" stroke="#A12844" stroke-width="1.25" stroke-miterlimit="10"></path><path d="M25.3711 2.81277L23.4961 0.937771H8.49609L6.62109 2.81277H2.87109V13.6001C2.87109 21.6798 8.22722 28.8056 15.9961 31.0253C23.765 28.8056 29.1211 21.6798 29.1211 13.6001V2.81277H25.3711Z" stroke="#A12844" stroke-width="1.25" stroke-miterlimit="10"></path><path d="M15.9961 15.0629V20.6879" stroke="#A12844" stroke-width="1.25" stroke-miterlimit="10"></path></g></g><defs><clipPath id="clip0_1_2101"><rect width="32" height="32" fill="white"></rect></clipPath></defs></svg>