<svg xmlns="http://www.w3.org/2000/svg" width="32" height="33" viewBox="0 0 32 33" fill="none"><g clip-path="url(#clip0_2_537)"><path d="M11.2807 22.2314C11.3959 20.5961 12.037 19.0418 13.1085 17.801C13.7963 17.0234 14.31 16.1078 14.6152 15.1155C14.9203 14.1232 15.01 13.0771 14.8781 12.0474C14.6342 10.2549 13.749 8.6115 12.3863 7.42166C11.0236 6.23182 9.2759 5.57617 7.46687 5.57617C5.65784 5.57617 3.91012 6.23182 2.54745 7.42166C1.18479 8.6115 0.29953 10.2549 0.0556723 12.0474C-0.0767751 13.0768 0.0122033 14.1227 0.316652 15.115C0.621101 16.1072 1.134 17.023 1.82101 17.801C2.89253 19.042 3.53372 20.5964 3.64874 22.2319C3.30801 22.3747 3.02716 22.6309 2.85389 22.9572C2.68061 23.2835 2.62558 23.6596 2.69812 24.0219C2.77067 24.3841 2.96633 24.7101 3.25189 24.9445C3.53745 25.1788 3.89531 25.3072 4.26474 25.3077H4.42474C4.66249 25.9248 5.07855 26.4573 5.61992 26.8372C6.1613 27.2171 6.8035 27.4273 7.46474 27.441C8.12598 27.4273 8.76818 27.2171 9.30955 26.8372C9.85093 26.4573 10.267 25.9248 10.5047 25.3077H10.6647C11.0344 25.3075 11.3926 25.1792 11.6784 24.9448C11.9642 24.7104 12.1601 24.3843 12.2326 24.0218C12.3052 23.6594 12.2501 23.283 12.0765 22.9566C11.903 22.6302 11.6218 22.3739 11.2807 22.2314ZM1.11327 12.1754C1.3251 10.6414 2.08494 9.23588 3.25244 8.21852C4.41993 7.20116 5.91617 6.64071 7.46474 6.64071C9.0133 6.64071 10.5095 7.20116 11.677 8.21852C12.8445 9.23588 13.6044 10.6414 13.8162 12.1754C13.9298 13.056 13.8539 13.9507 13.5935 14.7995C13.3331 15.6483 12.8942 16.4317 12.3063 17.097C11.0947 18.5022 10.3638 20.2578 10.2205 22.1077H9.06474V17.841C9.06474 17.5581 9.17712 17.2868 9.37716 17.0868C9.5772 16.8867 9.84851 16.7743 10.1314 16.7743C10.5558 16.7743 10.9627 16.6058 11.2628 16.3057C11.5628 16.0057 11.7314 15.5987 11.7314 15.1743C11.7314 14.75 11.5628 14.343 11.2628 14.043C10.9627 13.7429 10.5558 13.5743 10.1314 13.5743H4.79807C4.37373 13.5743 3.96676 13.7429 3.6667 14.043C3.36664 14.343 3.19807 14.75 3.19807 15.1743C3.19807 15.5987 3.36664 16.0057 3.6667 16.3057C3.96676 16.6058 4.37373 16.7743 4.79807 16.7743C5.08097 16.7743 5.35228 16.8867 5.55232 17.0868C5.75236 17.2868 5.86474 17.5581 5.86474 17.841V22.1077H4.70901C4.56554 20.258 3.8347 18.5025 2.62314 17.0975C2.0352 16.4321 1.59631 15.6487 1.3359 14.7998C1.0755 13.9508 0.99959 13.0561 1.11327 12.1754ZM5.33141 15.1743C5.33141 15.2798 5.30013 15.3829 5.24152 15.4706C5.18292 15.5583 5.09962 15.6267 5.00217 15.6671C4.90472 15.7074 4.79748 15.718 4.69402 15.6974C4.59057 15.6768 4.49554 15.6261 4.42095 15.5515C4.34636 15.4769 4.29557 15.3818 4.27499 15.2784C4.25441 15.1749 4.26497 15.0677 4.30534 14.9702C4.3457 14.8728 4.41406 14.7895 4.50177 14.7309C4.58947 14.6723 4.69259 14.641 4.79807 14.641C4.93952 14.641 5.07518 14.6972 5.1752 14.7972C5.27521 14.8972 5.33141 15.0329 5.33141 15.1743ZM6.06794 16.1343C6.23111 15.9261 6.33813 15.6794 6.37875 15.4179C6.41937 15.1565 6.39223 14.889 6.29994 14.641H8.62954C8.53676 14.8893 8.50937 15.1574 8.54999 15.4193C8.59062 15.6813 8.6979 15.9284 8.86154 16.137C8.5945 16.3338 8.37729 16.5905 8.22734 16.8864C8.07739 17.1823 7.99887 17.5093 7.99807 17.841V22.1077H6.93141V17.841C6.93061 17.5093 6.85208 17.1823 6.70213 16.8864C6.55218 16.5905 6.33498 16.3338 6.06794 16.137V16.1343ZM9.59807 15.1743C9.59807 15.0689 9.62935 14.9657 9.68795 14.878C9.74656 14.7903 9.82985 14.722 9.92731 14.6816C10.0248 14.6412 10.132 14.6307 10.2355 14.6513C10.3389 14.6718 10.4339 14.7226 10.5085 14.7972C10.5831 14.8718 10.6339 14.9668 10.6545 15.0703C10.6751 15.1737 10.6645 15.281 10.6241 15.3784C10.5838 15.4759 10.5154 15.5592 10.4277 15.6178C10.34 15.6764 10.2369 15.7077 10.1314 15.7077C9.98996 15.7077 9.8543 15.6515 9.75428 15.5515C9.65426 15.4514 9.59807 15.3158 9.59807 15.1743ZM7.46474 26.3743C7.09007 26.3704 6.7227 26.2702 6.39789 26.0834C6.07307 25.8966 5.8017 25.6295 5.60981 25.3077H9.31967C9.12778 25.6295 8.85641 25.8966 8.53159 26.0834C8.20677 26.2702 7.83941 26.3704 7.46474 26.3743ZM10.6647 24.241H4.26474C4.12329 24.241 3.98763 24.1848 3.88762 24.0848C3.7876 23.9848 3.73141 23.8491 3.73141 23.7077C3.73141 23.5662 3.7876 23.4306 3.88762 23.3305C3.98763 23.2305 4.12329 23.1743 4.26474 23.1743H10.6647C10.8062 23.1743 10.9418 23.2305 11.0419 23.3305C11.1419 23.4306 11.1981 23.5662 11.1981 23.7077C11.1981 23.8491 11.1419 23.9848 11.0419 24.0848C10.9418 24.1848 10.8062 24.241 10.6647 24.241Z" fill="#A12844"></path><path d="M30.4012 12.5083H28.8012V11.975C28.8012 11.5507 28.6326 11.1437 28.3325 10.8436C28.0325 10.5436 27.6255 10.375 27.2012 10.375H24.0012C23.5768 10.375 23.1699 10.5436 22.8698 10.8436C22.5697 11.1437 22.4012 11.5507 22.4012 11.975V12.5083H20.8012C20.3768 12.5083 19.9699 12.6769 19.6698 12.977C19.3697 13.277 19.2012 13.684 19.2012 14.1083V21.0417C19.2012 21.466 19.3697 21.873 19.6698 22.173C19.9699 22.4731 20.3768 22.6417 20.8012 22.6417H30.4012C30.8255 22.6417 31.2325 22.4731 31.5325 22.173C31.8326 21.873 32.0012 21.466 32.0012 21.0417V14.1083C32.0012 13.684 31.8326 13.277 31.5325 12.977C31.2325 12.6769 30.8255 12.5083 30.4012 12.5083ZM23.4678 11.975C23.4678 11.8336 23.524 11.6979 23.624 11.5979C23.7241 11.4979 23.8597 11.4417 24.0012 11.4417H27.2012C27.3426 11.4417 27.4783 11.4979 27.5783 11.5979C27.6783 11.6979 27.7345 11.8336 27.7345 11.975V12.5083H23.4678V11.975ZM30.4012 21.575H20.8012C20.6597 21.575 20.5241 21.5188 20.424 21.4188C20.324 21.3188 20.2678 21.1831 20.2678 21.0417V17.7435C20.4386 17.8067 20.6191 17.8399 20.8012 17.8417H24.0012V18.9083C24.0012 19.1912 24.1136 19.4625 24.3136 19.6626C24.5136 19.8626 24.7849 19.975 25.0678 19.975H26.1345C26.4174 19.975 26.6887 19.8626 26.8888 19.6626C27.0888 19.4625 27.2012 19.1912 27.2012 18.9083V17.8417H30.4012C30.5833 17.8399 30.7637 17.8067 30.9345 17.7435V21.0417C30.9345 21.1831 30.8783 21.3188 30.7783 21.4188C30.6783 21.5188 30.5426 21.575 30.4012 21.575ZM26.1345 18.9083H25.0678V17.8417H26.1345V18.9083ZM30.4012 16.775H20.8012C20.6597 16.775 20.5241 16.7188 20.424 16.6188C20.324 16.5188 20.2678 16.3831 20.2678 16.2417V14.1083C20.2678 13.9669 20.324 13.8312 20.424 13.7312C20.5241 13.6312 20.6597 13.575 20.8012 13.575H30.4012C30.5426 13.575 30.6783 13.6312 30.7783 13.7312C30.8783 13.8312 30.9345 13.9669 30.9345 14.1083V16.2417C30.9345 16.3831 30.8783 16.5188 30.7783 16.6188C30.6783 16.7188 30.5426 16.775 30.4012 16.775Z" fill="#A12844"></path><path d="M21.3599 7.44479C21.4354 7.82313 21.6408 8.16314 21.9406 8.40596C22.2404 8.64878 22.6157 8.77912 23.0015 8.77439H25.6025C26.0269 8.77439 26.4339 8.60582 26.7339 8.30576C27.034 8.0057 27.2025 7.59874 27.2025 7.17439V4.56426C27.2072 4.17865 27.0762 3.80368 26.8325 3.5048C26.5888 3.20593 26.2478 3.00216 25.8692 2.92906C25.5673 2.87851 25.2573 2.9156 24.9759 3.03594C24.6945 3.15628 24.4535 3.35482 24.2815 3.60799C22.8271 2.47978 21.0431 1.85915 19.2025 1.84106C16.8286 1.82517 14.5182 2.6077 12.6425 4.06292C12.5327 4.15099 12.4427 4.26121 12.3784 4.38641C12.314 4.5116 12.2768 4.64895 12.2691 4.7895C12.2614 4.93005 12.2834 5.07065 12.3337 5.20212C12.384 5.33359 12.4614 5.45299 12.5609 5.55252L13.4068 6.40159C13.5787 6.57443 13.8077 6.67862 14.0509 6.69462C14.2941 6.71063 14.5348 6.63735 14.7279 6.48852C16.0207 5.52901 17.5927 5.02048 19.2025 5.04106C20.1898 5.05272 21.1528 5.34902 21.9759 5.89439C21.7398 6.07075 21.5569 6.30891 21.4476 6.58258C21.3382 6.85625 21.3066 7.15481 21.3561 7.44532L21.3599 7.44479ZM19.2025 3.97439C17.3771 3.95693 15.595 4.53015 14.122 5.60852L13.3684 4.85012C15.0444 3.57453 17.0964 2.89134 19.2025 2.90772C21.0502 2.94322 22.8212 3.6528 24.1823 4.90292C24.2597 4.96835 24.354 5.01062 24.4544 5.02489C24.5548 5.03915 24.6571 5.02483 24.7497 4.98357C24.8423 4.94231 24.9214 4.87578 24.9779 4.79161C25.0344 4.70745 25.0661 4.60905 25.0692 4.50772C25.0705 4.4302 25.0885 4.35386 25.1219 4.28388C25.1553 4.2139 25.2033 4.15191 25.2627 4.10209C25.3221 4.05228 25.3915 4.01582 25.4663 3.99517C25.541 3.97451 25.6193 3.97016 25.6959 3.98239C25.8249 4.01405 25.9391 4.08919 26.0192 4.19516C26.0994 4.30114 26.1406 4.43148 26.1359 4.56426V7.17439C26.1359 7.31584 26.0797 7.4515 25.9797 7.55151C25.8796 7.65153 25.744 7.70772 25.6025 7.70772H23.0015C22.8683 7.71197 22.7377 7.67077 22.6311 7.59089C22.5244 7.51102 22.4482 7.39724 22.4148 7.26826C22.4024 7.19198 22.4064 7.11391 22.4267 7.03933C22.447 6.96475 22.4831 6.8954 22.5324 6.83594C22.5818 6.77649 22.6434 6.72833 22.713 6.69471C22.7826 6.66109 22.8586 6.64279 22.9359 6.64106H23.1439C23.2505 6.63754 23.3538 6.60251 23.4406 6.54038C23.5273 6.47826 23.5938 6.39183 23.6315 6.29199C23.6692 6.19215 23.6765 6.08338 23.6524 5.9794C23.6284 5.87541 23.5741 5.78088 23.4964 5.70772C22.3245 4.62552 20.7973 4.00906 19.2025 3.97439Z" fill="#A12844"></path><path d="M21.714 26.3396C21.7924 26.4321 21.8809 26.5155 21.978 26.5882C21.1538 27.1341 20.1895 27.4302 19.2009 27.441C17.5909 27.4617 16.0187 26.9531 14.7257 25.9935C14.5327 25.8447 14.292 25.7714 14.0488 25.7874C13.8056 25.8034 13.5765 25.9076 13.4047 26.0804L12.5609 26.9295C12.4614 27.029 12.384 27.1484 12.3337 27.2799C12.2834 27.4114 12.2614 27.552 12.2691 27.6925C12.2768 27.8331 12.314 27.9704 12.3784 28.0956C12.4427 28.2208 12.5327 28.331 12.6425 28.4191C14.5178 29.874 16.8275 30.6565 19.2009 30.641C21.0405 30.6221 22.8233 30.0017 24.2772 28.8746C24.4498 29.1278 24.6913 29.3262 24.9732 29.4465C25.255 29.5667 25.5654 29.6037 25.8676 29.553C26.2462 29.4799 26.5872 29.2761 26.8309 28.9772C27.0746 28.6784 27.2056 28.3034 27.2009 27.9178V25.3076C27.2009 24.8833 27.0324 24.4763 26.7323 24.1763C26.4323 23.8762 26.0253 23.7076 25.6009 23.7076H22.9999C22.6141 23.7029 22.2388 23.8333 21.939 24.0761C21.6392 24.3189 21.4338 24.6589 21.3583 25.0372C21.3191 25.2671 21.3306 25.5028 21.392 25.7278C21.4535 25.9528 21.5634 26.1616 21.714 26.3396ZM23.4959 26.7743C23.5736 26.7012 23.6279 26.6066 23.6519 26.5026C23.676 26.3987 23.6687 26.2899 23.6309 26.19C23.5932 26.0902 23.5268 26.0038 23.44 25.9417C23.3532 25.8795 23.25 25.8445 23.1433 25.841H22.9343C22.8567 25.8398 22.7803 25.8219 22.7102 25.7885C22.6402 25.7551 22.5781 25.707 22.5283 25.6475C22.4785 25.588 22.4421 25.5184 22.4216 25.4436C22.4011 25.3687 22.397 25.2904 22.4095 25.2138C22.4428 25.0848 22.5191 24.971 22.6257 24.8911C22.7323 24.8113 22.863 24.7701 22.9961 24.7743H25.6009C25.7424 24.7743 25.878 24.8305 25.9781 24.9305C26.0781 25.0305 26.1343 25.1662 26.1343 25.3076V27.9178C26.1391 28.0506 26.0981 28.181 26.018 28.2871C25.938 28.3931 25.8238 28.4684 25.6948 28.5002C25.6182 28.5125 25.5398 28.5082 25.4649 28.4876C25.3901 28.4669 25.3206 28.4304 25.2611 28.3805C25.2016 28.3307 25.1535 28.2686 25.1201 28.1985C25.0868 28.1284 25.0688 28.0519 25.0676 27.9743C25.0643 27.8732 25.0327 27.7751 24.9763 27.6911C24.9199 27.6072 24.8411 27.5408 24.7487 27.4995C24.6564 27.4582 24.5543 27.4438 24.4542 27.4578C24.354 27.4717 24.2598 27.5136 24.1823 27.5786C22.8209 28.8293 21.0493 29.5391 19.2009 29.5743C17.0941 29.5912 15.0412 28.908 13.3647 27.6319L14.1204 26.8735C15.5934 27.9519 17.3755 28.5251 19.2009 28.5076C20.7961 28.4732 22.3237 27.8568 23.4959 26.7743Z" fill="#A12844"></path></g><defs><clipPath id="clip0_2_537"><rect width="32" height="32" fill="white" transform="translate(0 0.241211)"></rect></clipPath></defs></svg>