<svg xmlns="http://www.w3.org/2000/svg" width="32" height="32" viewBox="0 0 32 32" fill="none"><path d="M27.2058 24.5264L25.7457 23.0663L23.882 21.203C27.8234 15.7406 26.9081 8.16673 21.7789 3.80045C16.6496 -0.565838 9.0268 -0.260083 4.26373 4.50299C-0.49934 9.26606 -0.805096 16.8889 3.56119 22.0181C7.92747 27.1474 15.5013 28.0627 20.9638 24.1212L27.9599 31.1163C28.4748 31.6661 29.2482 31.8919 29.9779 31.7054C30.7077 31.519 31.278 30.9499 31.466 30.2205C31.654 29.4911 31.4299 28.7172 30.8812 28.2012L27.2058 24.5264ZM23.9217 25.619L25.3803 24.1605L26.1111 24.8913L24.6526 26.3499L23.9217 25.619ZM1.5501 13.6603C1.5501 7.10417 6.86491 1.78936 13.4211 1.78936C19.9772 1.78936 25.292 7.10417 25.292 13.6603C25.292 20.2165 19.9772 25.5313 13.4211 25.5313C6.86786 25.5242 1.55721 20.2135 1.5501 13.6603ZM23.2389 22.0216L24.6505 23.4327L23.1914 24.8892L21.7824 23.4781C22.3055 23.0317 22.7925 22.5447 23.2389 22.0216ZM30.1483 30.3927C29.7407 30.782 29.0987 30.7806 28.6928 30.3896L25.3824 27.0797L26.8404 25.6211L30.1509 28.931C30.3446 29.1251 30.4532 29.3883 30.4526 29.6625C30.452 29.9367 30.3429 30.1995 30.1483 30.3927Z" fill="#A12844"></path><path d="M20.6688 17.8072C21.0213 17.2007 21.2878 16.5481 21.4605 15.8681L22.9846 15.415C23.3772 15.3012 23.6606 14.9594 23.6995 14.5525C23.7284 14.2531 23.7423 13.9533 23.7423 13.6606C23.7423 13.368 23.7284 13.0681 23.6995 12.7682C23.6605 12.3613 23.3772 12.0193 22.9846 11.9053L21.4817 11.4671C21.3001 10.7897 21.0251 10.1409 20.6646 9.53934L21.4244 8.13753C21.6214 7.77981 21.5805 7.33816 21.3211 7.02269C21.1302 6.79095 20.9278 6.56901 20.7209 6.36205C20.5139 6.15508 20.2909 5.95172 20.0587 5.76024C19.7431 5.50082 19.3012 5.45993 18.9433 5.65702L17.5684 6.41211C16.9618 6.05956 16.3092 5.79309 15.6293 5.62037L15.1751 4.09521C15.0614 3.70263 14.7195 3.41926 14.3126 3.38037C13.7193 3.32308 13.1217 3.32308 12.5284 3.38037C12.1213 3.41942 11.7793 3.70294 11.6654 4.09572L11.2272 5.59869C10.5498 5.78024 9.90101 6.05522 9.29946 6.41572L7.89766 5.65598C7.53993 5.45816 7.09764 5.49909 6.7823 5.75921C6.55056 5.95018 6.32862 6.1525 6.12166 6.35947C5.91469 6.56643 5.71133 6.7894 5.51985 7.02166C5.26043 7.33729 5.21953 7.77914 5.41662 8.13701L6.17172 9.51198C5.81917 10.1185 5.5527 10.7711 5.37998 11.4511L3.85533 11.9053C3.46275 12.019 3.17939 12.3609 3.1405 12.7677C3.11159 13.0676 3.09766 13.3675 3.09766 13.6601C3.09766 13.9528 3.11159 14.2526 3.1405 14.5525C3.17974 14.9594 3.46323 15.3012 3.85585 15.415L5.35882 15.8531C5.54036 16.5305 5.81535 17.1793 6.17585 17.7809L5.41611 19.1827C5.21916 19.5406 5.26005 19.9824 5.51933 20.298C5.7103 20.5298 5.91262 20.7517 6.11959 20.9587C6.32656 21.1657 6.54953 21.3716 6.78178 21.5605C7.09712 21.8206 7.53942 21.8616 7.89714 21.6637L9.27211 20.9086C9.87863 21.2612 10.5313 21.5276 11.2112 21.7004L11.6649 23.225C11.7786 23.6176 12.1205 23.901 12.5273 23.9399C12.8267 23.9688 13.1266 23.9827 13.4192 23.9827C13.7118 23.9827 14.0117 23.9688 14.3116 23.9399C14.7189 23.901 15.0611 23.6174 15.1751 23.2245L15.6133 21.7215C16.2907 21.54 16.9395 21.265 17.541 20.9045L18.9428 21.6642C19.3007 21.8613 19.7425 21.8204 20.0582 21.561C20.2899 21.37 20.5118 21.1677 20.7188 20.9608C20.9258 20.7538 21.1317 20.5308 21.3206 20.2986C21.58 19.9829 21.6209 19.5411 21.4238 19.1832L20.6688 17.8072ZM19.989 20.2299C19.8042 20.4142 19.6066 20.5943 19.4342 20.7564L18.0334 19.9971C17.726 19.8313 17.3544 19.8376 17.0528 20.0137C16.5147 20.3228 15.9394 20.562 15.3408 20.7254C15.0042 20.8149 14.7381 21.0726 14.6378 21.4062L14.2146 22.9128C13.6955 22.9508 13.1746 22.9567 12.6548 22.9303L12.2017 21.4062C12.1014 21.0726 11.8353 20.8149 11.4987 20.7254C10.8997 20.5619 10.324 20.3225 9.78566 20.0131C9.63185 19.9243 9.45746 19.8773 9.27985 19.8769C9.11455 19.877 8.95189 19.9184 8.80656 19.9971L7.43882 20.7646C7.23237 20.5943 7.03572 20.4142 6.84991 20.2289C6.66411 20.0436 6.48553 19.8464 6.32346 19.674L7.08269 18.2733C7.24851 17.9659 7.24225 17.5943 7.06617 17.2926C6.75701 16.7546 6.51783 16.1793 6.35443 15.5806C6.26484 15.2444 6.0074 14.9785 5.67417 14.8782L4.16759 14.455C4.1423 14.1876 4.12991 13.9208 4.12991 13.6601C4.12991 13.3995 4.1423 13.1326 4.15004 12.8952L5.67417 12.442C6.00773 12.3418 6.26542 12.0757 6.35495 11.7391C6.51848 11.1401 6.75783 10.5644 7.0672 10.026C7.24343 9.72439 7.24949 9.35265 7.0832 9.0454L6.31572 7.67714C6.48604 7.47069 6.66617 7.27405 6.85146 7.08824C7.03675 6.90243 7.23391 6.72385 7.4063 6.56179L8.80708 7.32102C9.11436 7.48735 9.48621 7.48108 9.78772 7.3045C10.3258 6.99534 10.9011 6.75616 11.4997 6.59276C11.8356 6.50346 12.1014 6.24668 12.2022 5.91405L12.6254 4.40747C13.1445 4.36942 13.6654 4.36356 14.1851 4.38992L14.6383 5.91405C14.7386 6.2476 15.0047 6.50529 15.3413 6.59482C15.94 6.75831 16.5155 6.99749 17.0538 7.30656C17.3552 7.48366 17.7273 7.48992 18.0344 7.32308L19.4022 6.5556C19.6086 6.72592 19.8053 6.90605 19.9911 7.09134C20.1769 7.27663 20.3555 7.47379 20.5175 7.64618L19.7583 9.04747C19.5923 9.35483 19.5985 9.72652 19.7748 10.0281C20.084 10.5662 20.3232 11.1415 20.4866 11.7401C20.5761 12.0767 20.8338 12.3428 21.1673 12.4431L22.6739 12.8663C22.6982 13.1326 22.7106 13.402 22.7106 13.6601C22.7106 13.9125 22.6987 14.1716 22.6749 14.4302L21.1663 14.8782C20.8327 14.9785 20.5751 15.2445 20.4855 15.5811C20.322 16.1801 20.0826 16.7558 19.7733 17.2942C19.5971 17.5959 19.5911 17.9676 19.7573 18.2748L20.5248 19.6426C20.3544 19.8464 20.1743 20.0441 19.989 20.2299Z" fill="#A12844"></path><path d="M13.4221 7.4668C10.0015 7.4668 7.22852 10.2397 7.22852 13.6603C7.22852 17.0809 10.0015 19.8539 13.4221 19.8539C16.8427 19.8539 19.6156 17.0809 19.6156 13.6603C19.6119 10.2413 16.8411 7.47049 13.4221 7.4668ZM13.4221 18.8216C10.5716 18.8216 8.26077 16.5108 8.26077 13.6603C8.26077 10.8098 10.5716 8.49905 13.4221 8.49905C16.2726 8.49905 18.5834 10.8098 18.5834 13.6603C18.5802 16.5095 16.2713 18.8185 13.4221 18.8216Z" fill="#A12844"></path><path d="M13.4215 10.0479C11.4261 10.0479 9.80859 11.6654 9.80859 13.6608C9.80859 15.6561 11.4261 17.2737 13.4215 17.2737C15.4168 17.2737 17.0344 15.6561 17.0344 13.6608C17.0318 11.6665 15.4158 10.0504 13.4215 10.0479ZM13.4215 16.2414C11.9962 16.2414 10.8409 15.086 10.8409 13.6608C10.8409 12.2355 11.9962 11.0801 13.4215 11.0801C14.8467 11.0801 16.0021 12.2355 16.0021 13.6608C16.0004 15.0853 14.846 16.2397 13.4215 16.2414Z" fill="#A12844"></path></svg>