<svg xmlns="http://www.w3.org/2000/svg" width="32" height="33" viewBox="0 0 32 33" fill="none"><g clip-path="url(#clip0_2_528)"><path d="M4.82126 32.2225L27.1791 32.2411C27.561 32.2443 27.9366 32.1449 28.2669 31.9533C28.5973 31.7617 28.8701 31.485 29.057 31.1521C29.2433 30.8285 29.339 30.4608 29.3343 30.0875C29.3295 29.7142 29.2243 29.3491 29.0298 29.0305L23.1855 19.2475C23.2687 19.159 23.3525 19.0801 23.4351 18.9846L25.3109 19.5222C25.5023 19.579 25.7071 19.5719 25.8941 19.5018C26.0811 19.4317 26.2402 19.3026 26.3471 19.1339C26.4538 18.9739 26.8117 18.3585 26.8927 18.2006C26.9898 18.0216 27.0249 17.8155 26.9928 17.6144C26.9607 17.4133 26.8631 17.2285 26.7151 17.0886L25.3178 15.7478C25.4657 15.3172 25.5837 14.8768 25.6709 14.4299L27.5738 13.9611C27.7646 13.9108 27.9345 13.8014 28.0594 13.6486C28.1842 13.4958 28.2575 13.3074 28.2687 13.1105C28.2746 13.015 28.2751 12.7622 28.2751 12.5041C28.2751 12.2459 28.2751 11.9926 28.2693 11.9105C28.2591 11.7082 28.1841 11.5146 28.0554 11.3582C27.9267 11.2018 27.7511 11.091 27.5546 11.0422L25.6693 10.5777C25.5821 10.1309 25.4641 9.69076 25.3162 9.26032L26.7146 7.92112C26.8616 7.78323 26.9593 7.60094 26.9927 7.4022C27.0261 7.20346 26.9934 6.99924 26.8997 6.82085C26.8106 6.64965 26.4543 6.03632 26.3637 5.90139C26.2582 5.72546 26.0974 5.58942 25.9065 5.51454C25.7155 5.43966 25.5051 5.43016 25.3082 5.48752L23.4351 6.02512C23.1366 5.68036 22.8128 5.35823 22.4666 5.06139L23.0037 3.19472C23.0594 3 23.0503 2.79243 22.9776 2.60336C22.905 2.41429 22.7728 2.254 22.601 2.14672C22.4442 2.05179 21.8399 1.70032 21.681 1.61872C21.5017 1.52136 21.2952 1.48579 21.0937 1.51751C20.8921 1.54923 20.7066 1.64646 20.5658 1.79419L19.2133 3.18619C18.7806 3.03665 18.3377 2.91865 17.8879 2.83312L17.4127 0.934454C17.3602 0.742724 17.2481 0.572649 17.0926 0.448791C16.9371 0.324933 16.7463 0.253703 16.5477 0.245388C16.3679 0.241121 15.6527 0.241121 15.4687 0.245388C15.2674 0.254922 15.0744 0.328752 14.9182 0.456037C14.7619 0.583322 14.6505 0.757356 14.6005 0.952588L14.1317 2.83312C13.6819 2.91862 13.239 3.03662 12.8063 3.18619L11.4559 1.79525C11.3171 1.64826 11.134 1.55071 10.9346 1.51749C10.7352 1.48427 10.5304 1.5172 10.3514 1.61125C10.1797 1.69979 9.5754 2.05125 9.4074 2.15312C9.23795 2.26142 9.10817 2.42171 9.0375 2.60998C8.96683 2.79824 8.95907 3.00434 9.0154 3.19739L9.5514 5.05925C9.20535 5.35632 8.8818 5.67863 8.5834 6.02352L6.70926 5.48539C6.51802 5.42814 6.3133 5.43498 6.12631 5.50489C5.93932 5.57479 5.78032 5.70392 5.67353 5.87259C5.56046 6.04112 5.2026 6.66032 5.12686 6.80752C5.02935 6.9867 4.99389 7.19312 5.02602 7.39457C5.05815 7.59602 5.15605 7.78116 5.30446 7.92112L6.7018 9.26245C6.55402 9.69204 6.43605 10.1313 6.34873 10.5771L4.44633 11.0465C4.25492 11.0959 4.08421 11.205 3.9589 11.358C3.83359 11.5109 3.76017 11.6997 3.74926 11.8971C3.74393 11.9926 3.7434 12.2454 3.7434 12.5041C3.7434 12.7627 3.7434 13.015 3.7482 13.0955C3.75797 13.2982 3.83284 13.4922 3.96168 13.6489C4.09052 13.8057 4.26647 13.9166 4.4634 13.9654L6.34873 14.4278C6.43601 14.8747 6.55398 15.315 6.7018 15.7457L5.30553 17.0881C5.15863 17.2259 5.06111 17.4082 5.02796 17.6069C4.99481 17.8056 5.02787 18.0097 5.12206 18.1878C5.2122 18.3622 5.569 18.9761 5.65806 19.1083C5.76332 19.2843 5.92404 19.4203 6.11498 19.495C6.30592 19.5697 6.51627 19.5789 6.713 19.5211L8.58606 18.9846C8.6682 19.0795 8.74606 19.1675 8.8282 19.2513L2.9754 29.0075C2.77995 29.3259 2.67384 29.691 2.66821 30.0645C2.66257 30.438 2.75763 30.8061 2.9434 31.1302C3.12953 31.4641 3.40211 31.7417 3.73254 31.9339C4.06296 32.126 4.43903 32.2257 4.82126 32.2225ZM9.3322 18.2177C9.21409 18.0862 9.06171 17.9903 8.89214 17.9407C8.72257 17.891 8.54253 17.8896 8.3722 17.9366L6.5162 18.4699C6.41593 18.3062 6.22393 17.9766 6.1194 17.7889L7.51513 16.4491C7.64089 16.3228 7.72835 16.1635 7.76742 15.9895C7.80649 15.8156 7.79557 15.6342 7.73593 15.4662C7.58497 15.0409 7.4671 14.6046 7.3834 14.1611C7.35038 13.9833 7.2673 13.8186 7.14392 13.6863C7.02054 13.554 6.86198 13.4597 6.68686 13.4145L4.81166 12.9521C4.81166 12.8411 4.81166 12.6737 4.81166 12.5035C4.81166 12.3334 4.81166 12.1713 4.81166 12.0545L6.7018 11.5883C6.87263 11.5422 7.02703 11.4489 7.14729 11.3191C7.26756 11.1893 7.34883 11.0283 7.3818 10.8545C7.46501 10.4087 7.5827 9.97002 7.7338 9.54245C7.79335 9.37269 7.80341 9.1895 7.7628 9.01423C7.7222 8.83897 7.6326 8.67887 7.50446 8.55259L6.1178 7.21925C6.21486 7.04432 6.4026 6.72165 6.51513 6.53872L8.37646 7.07205C8.54937 7.11778 8.73161 7.1143 8.90265 7.062C9.07368 7.0097 9.2267 6.91067 9.34446 6.77605C9.64294 6.4262 9.96993 6.10171 10.3221 5.80592C10.4542 5.68832 10.5506 5.53599 10.6004 5.36627C10.6502 5.19654 10.6513 5.01625 10.6037 4.84592L10.0703 2.99685C10.2501 2.89019 10.5706 2.70512 10.7557 2.60272L12.1023 3.98939C12.2283 4.11483 12.3869 4.20257 12.5601 4.24272C12.7333 4.28286 12.9143 4.27381 13.0826 4.21659C13.5168 4.06279 13.9627 3.94436 14.4159 3.86245C14.5897 3.8267 14.7502 3.74348 14.8796 3.62203C15.0089 3.50058 15.1021 3.34565 15.1487 3.17445L15.6122 1.30779H16.4079L16.8783 3.18939C16.927 3.35964 17.0218 3.51311 17.1523 3.63284C17.2827 3.75257 17.4437 3.83388 17.6175 3.86779C18.0709 3.9498 18.5169 4.06878 18.9509 4.22352C19.1192 4.2785 19.2996 4.28537 19.4717 4.24334C19.6438 4.20132 19.8007 4.11207 19.9247 3.98565L21.2655 2.60432C21.4442 2.70352 21.7759 2.89605 21.9503 2.99845L21.417 4.84912C21.3697 5.02254 21.3726 5.20583 21.4254 5.37766C21.4782 5.5495 21.5786 5.70282 21.7151 5.81979C22.0654 6.11538 22.3906 6.43951 22.6874 6.78885C22.8059 6.92072 22.9588 7.01697 23.1289 7.0668C23.299 7.11664 23.4797 7.11809 23.6506 7.07099L25.5066 6.53765C25.6079 6.70192 25.7994 7.03152 25.9034 7.21819L24.5071 8.56112C24.3816 8.6876 24.2943 8.84693 24.2552 9.0208C24.2162 9.19467 24.2269 9.37604 24.2863 9.54405C24.4365 9.96867 24.5534 10.4043 24.6362 10.847C24.6694 11.0247 24.7525 11.1894 24.8759 11.3216C24.9992 11.4538 25.1577 11.5482 25.3327 11.5937L27.2085 12.0555V12.5051C27.2085 12.5051 27.2085 12.8374 27.2085 12.9537L25.3183 13.4198C25.1473 13.4661 24.9928 13.5595 24.8725 13.6895C24.7521 13.8195 24.6708 13.9807 24.6378 14.1547C24.5549 14.6006 24.4372 15.0393 24.2858 15.4667C24.2265 15.6366 24.2166 15.8198 24.2572 15.9951C24.2978 16.1704 24.3872 16.3306 24.5151 16.4571L25.9018 17.7905C25.8053 17.9649 25.6175 18.287 25.5045 18.4715L23.6442 17.9382C23.4709 17.8911 23.2879 17.8941 23.1162 17.9466C22.9446 17.9992 22.7913 18.0993 22.6741 18.2353C22.6543 18.2587 22.6357 18.2779 22.6165 18.3003L21.5973 16.5937C22.3536 15.5595 22.8087 14.3361 22.9119 13.059C23.0151 11.782 22.7625 10.5013 22.182 9.35912C21.6015 8.21696 20.7159 7.25798 19.6234 6.58862C18.5309 5.91925 17.2744 5.56568 15.9932 5.56715C14.712 5.56861 13.4562 5.92506 12.3653 6.59692C11.2744 7.26879 10.3909 8.22979 9.81307 9.37328C9.23519 10.5168 8.98547 11.798 9.0916 13.0748C9.19774 14.3516 9.65559 15.5741 10.4143 16.6065L9.401 18.2971C9.37753 18.2678 9.3562 18.2465 9.3322 18.2177ZM11.0197 15.5969C10.4676 14.7092 10.1627 13.6901 10.1365 12.6451C10.1104 11.6001 10.3639 10.5671 10.871 9.65294C11.378 8.73879 12.12 7.97671 13.0204 7.44555C13.9207 6.91438 14.9466 6.63343 15.992 6.63175C17.0373 6.63007 18.0641 6.90773 18.9661 7.43601C19.8682 7.96428 20.6127 8.72397 21.1226 9.6365C21.6326 10.549 21.8894 11.5812 21.8666 12.6263C21.8439 13.6714 21.5422 14.6914 20.993 15.5809L17.8687 10.3505C17.6783 10.0303 17.4074 9.7656 17.0829 9.58267C16.7584 9.39975 16.3916 9.30497 16.0191 9.30779C15.6469 9.30505 15.2805 9.39975 14.9562 9.58248C14.6319 9.7652 14.3611 10.0296 14.1706 10.3494L11.0197 15.5969ZM3.889 29.5579L15.0842 10.895C15.1808 10.7344 15.3178 10.6018 15.4816 10.5105C15.6453 10.4192 15.8301 10.3723 16.0175 10.3745C16.2055 10.3727 16.3907 10.4203 16.5546 10.5125C16.7184 10.6047 16.8553 10.7382 16.9514 10.8998L28.1173 29.5793C28.2133 29.7365 28.2653 29.9168 28.2678 30.1011C28.2702 30.2854 28.223 30.4669 28.1311 30.6267C28.0364 30.7948 27.8983 30.9343 27.7312 31.0306C27.5641 31.127 27.3741 31.1767 27.1813 31.1745L4.82233 31.1558C4.6293 31.1578 4.43928 31.1078 4.27218 31.0112C4.10507 30.9145 3.96701 30.7748 3.87246 30.6065C3.78073 30.4463 3.73385 30.2644 3.73676 30.0799C3.73967 29.8954 3.79226 29.7151 3.889 29.5579Z" fill="#A12844"></path><path d="M16.0004 24.7748C16.4247 24.7748 16.8317 24.6062 17.1318 24.3062C17.4318 24.0061 17.6004 23.5992 17.6004 23.1748V16.7748C17.6004 16.3505 17.4318 15.9435 17.1318 15.6434C16.8317 15.3434 16.4247 15.1748 16.0004 15.1748C15.576 15.1748 15.1691 15.3434 14.869 15.6434C14.569 15.9435 14.4004 16.3505 14.4004 16.7748V23.1748C14.4004 23.5992 14.569 24.0061 14.869 24.3062C15.1691 24.6062 15.576 24.7748 16.0004 24.7748ZM15.4671 16.7748C15.4671 16.6334 15.5232 16.4977 15.6233 16.3977C15.7233 16.2977 15.8589 16.2415 16.0004 16.2415C16.1418 16.2415 16.2775 16.2977 16.3775 16.3977C16.4775 16.4977 16.5337 16.6334 16.5337 16.7748V23.1748C16.5337 23.3163 16.4775 23.4519 16.3775 23.5519C16.2775 23.6519 16.1418 23.7081 16.0004 23.7081C15.8589 23.7081 15.7233 23.6519 15.6233 23.5519C15.5232 23.4519 15.4671 23.3163 15.4671 23.1748V16.7748Z" fill="#A12844"></path><path d="M16.0004 29.0418C16.3168 29.0418 16.6262 28.948 16.8893 28.7721C17.1524 28.5963 17.3575 28.3465 17.4786 28.0541C17.5997 27.7617 17.6314 27.44 17.5696 27.1297C17.5079 26.8193 17.3555 26.5342 17.1318 26.3104C16.908 26.0867 16.6229 25.9343 16.3125 25.8725C16.0022 25.8108 15.6805 25.8425 15.3881 25.9636C15.0957 26.0847 14.8458 26.2898 14.67 26.5529C14.4942 26.816 14.4004 27.1253 14.4004 27.4418C14.4004 27.8661 14.569 28.2731 14.869 28.5732C15.1691 28.8732 15.576 29.0418 16.0004 29.0418ZM16.0004 26.9085C16.1059 26.9085 16.209 26.9397 16.2967 26.9983C16.3844 27.057 16.4528 27.1402 16.4931 27.2377C16.5335 27.3352 16.5441 27.4424 16.5235 27.5458C16.5029 27.6493 16.4521 27.7443 16.3775 27.8189C16.3029 27.8935 16.2079 27.9443 16.1044 27.9649C16.001 27.9855 15.8937 27.9749 15.7963 27.9345C15.6988 27.8942 15.6155 27.8258 15.5569 27.7381C15.4983 27.6504 15.4671 27.5473 15.4671 27.4418C15.4671 27.3003 15.5232 27.1647 15.6233 27.0647C15.7233 26.9647 15.8589 26.9085 16.0004 26.9085Z" fill="#A12844"></path></g><defs><clipPath id="clip0_2_528"><rect width="32" height="32" fill="white" transform="translate(0 0.241211)"></rect></clipPath></defs></svg>