<svg xmlns="http://www.w3.org/2000/svg" width="429" height="202" viewBox="0 0 429 202" fill="none"><path d="M2 0.5H0.5V3.5H2V0.5ZM419.5 200.66C420.086 201.246 420.914 201.246 421.5 200.66L428.16 194C428.746 193.414 428.746 192.586 428.16 192L420.5 184.34L412.84 192C412.254 192.586 412.254 193.414 412.84 194L419.5 200.66ZM4.98864 3.5C5.81706 3.5 6.48864 2.82843 6.48864 2C6.48864 1.17157 5.81706 0.5 4.98864 0.5V3.5ZM10.9659 0.5C10.1375 0.5 9.46591 1.17157 9.46591 2C9.46591 2.82843 10.1375 3.5 10.9659 3.5V0.5ZM16.9432 3.5C17.7716 3.5 18.4432 2.82843 18.4432 2C18.4432 1.17157 17.7716 0.5 16.9432 0.5V3.5ZM22.9205 0.5C22.092 0.5 21.4205 1.17157 21.4205 2C21.4205 2.82843 22.092 3.5 22.9205 3.5V0.5ZM28.8977 3.5C29.7262 3.5 30.3977 2.82843 30.3977 2C30.3977 1.17157 29.7262 0.5 28.8977 0.5V3.5ZM34.875 0.5C34.0466 0.5 33.375 1.17157 33.375 2C33.375 2.82843 34.0466 3.5 34.875 3.5V0.5ZM40.8523 3.5C41.6807 3.5 42.3523 2.82843 42.3523 2C42.3523 1.17157 41.6807 0.5 40.8523 0.5V3.5ZM46.8295 0.5C46.0011 0.5 45.3295 1.17157 45.3295 2C45.3295 2.82843 46.0011 3.5 46.8295 3.5V0.5ZM52.8068 3.5C53.6352 3.5 54.3068 2.82843 54.3068 2C54.3068 1.17157 53.6352 0.5 52.8068 0.5V3.5ZM58.7841 0.5C57.9557 0.5 57.2841 1.17157 57.2841 2C57.2841 2.82843 57.9557 3.5 58.7841 3.5V0.5ZM64.7614 3.5C65.5898 3.5 66.2614 2.82843 66.2614 2C66.2614 1.17157 65.5898 0.5 64.7614 0.5V3.5ZM70.7386 0.5C69.9102 0.5 69.2386 1.17157 69.2386 2C69.2386 2.82843 69.9102 3.5 70.7386 3.5V0.5ZM76.7159 3.5C77.5443 3.5 78.2159 2.82843 78.2159 2C78.2159 1.17157 77.5443 0.5 76.7159 0.5V3.5ZM82.6932 0.5C81.8647 0.5 81.1932 1.17157 81.1932 2C81.1932 2.82843 81.8647 3.5 82.6932 3.5V0.5ZM88.6704 3.5C89.4989 3.5 90.1704 2.82843 90.1704 2C90.1704 1.17157 89.4989 0.5 88.6704 0.5V3.5ZM94.6477 0.5C93.8193 0.5 93.1477 1.17157 93.1477 2C93.1477 2.82843 93.8193 3.5 94.6477 3.5V0.5ZM100.625 3.5C101.453 3.5 102.125 2.82843 102.125 2C102.125 1.17157 101.453 0.5 100.625 0.5V3.5ZM106.602 0.5C105.774 0.5 105.102 1.17157 105.102 2C105.102 2.82843 105.774 3.5 106.602 3.5V0.5ZM112.58 3.5C113.408 3.5 114.08 2.82843 114.08 2C114.08 1.17157 113.408 0.5 112.58 0.5V3.5ZM118.557 0.5C117.728 0.5 117.057 1.17157 117.057 2C117.057 2.82843 117.728 3.5 118.557 3.5V0.5ZM124.534 3.5C125.363 3.5 126.034 2.82843 126.034 2C126.034 1.17157 125.363 0.5 124.534 0.5V3.5ZM130.511 0.5C129.683 0.5 129.011 1.17157 129.011 2C129.011 2.82843 129.683 3.5 130.511 3.5V0.5ZM136.489 3.5C137.317 3.5 137.989 2.82843 137.989 2C137.989 1.17157 137.317 0.5 136.489 0.5V3.5ZM142.466 0.5C141.637 0.5 140.966 1.17157 140.966 2C140.966 2.82843 141.637 3.5 142.466 3.5V0.5ZM148.443 3.5C149.272 3.5 149.943 2.82843 149.943 2C149.943 1.17157 149.272 0.5 148.443 0.5V3.5ZM154.42 0.5C153.592 0.5 152.92 1.17157 152.92 2C152.92 2.82843 153.592 3.5 154.42 3.5V0.5ZM160.398 3.5C161.226 3.5 161.898 2.82843 161.898 2C161.898 1.17157 161.226 0.5 160.398 0.5V3.5ZM166.375 0.5C165.547 0.5 164.875 1.17157 164.875 2C164.875 2.82843 165.547 3.5 166.375 3.5V0.5ZM172.352 3.5C173.181 3.5 173.852 2.82843 173.852 2C173.852 1.17157 173.181 0.5 172.352 0.5V3.5ZM178.33 0.5C177.501 0.5 176.83 1.17157 176.83 2C176.83 2.82843 177.501 3.5 178.33 3.5V0.5ZM184.307 3.5C185.135 3.5 185.807 2.82843 185.807 2C185.807 1.17157 185.135 0.5 184.307 0.5V3.5ZM190.284 0.5C189.456 0.5 188.784 1.17157 188.784 2C188.784 2.82843 189.456 3.5 190.284 3.5V0.5ZM196.261 3.5C197.09 3.5 197.761 2.82843 197.761 2C197.761 1.17157 197.09 0.5 196.261 0.5V3.5ZM202.239 0.5C201.41 0.5 200.739 1.17157 200.739 2C200.739 2.82843 201.41 3.5 202.239 3.5V0.5ZM208.216 3.5C209.044 3.5 209.716 2.82843 209.716 2C209.716 1.17157 209.044 0.5 208.216 0.5V3.5ZM214.193 0.5C213.365 0.5 212.693 1.17157 212.693 2C212.693 2.82843 213.365 3.5 214.193 3.5V0.5ZM220.171 3.5C220.999 3.5 221.671 2.82843 221.671 2C221.671 1.17157 220.999 0.5 220.171 0.5V3.5ZM226.148 0.5C225.319 0.5 224.648 1.17157 224.648 2C224.648 2.82843 225.319 3.5 226.148 3.5V0.5ZM232.125 3.5C232.954 3.5 233.625 2.82843 233.625 2C233.625 1.17157 232.954 0.5 232.125 0.5V3.5ZM238.102 0.5C237.274 0.5 236.602 1.17157 236.602 2C236.602 2.82843 237.274 3.5 238.102 3.5V0.5ZM244.08 3.5C244.908 3.5 245.58 2.82843 245.58 2C245.58 1.17157 244.908 0.5 244.08 0.5V3.5ZM250.057 0.5C249.229 0.5 248.557 1.17157 248.557 2C248.557 2.82843 249.229 3.5 250.057 3.5V0.5ZM256.034 3.5C256.863 3.5 257.534 2.82843 257.534 2C257.534 1.17157 256.863 0.5 256.034 0.5V3.5ZM262.012 0.5C261.183 0.5 260.512 1.17157 260.512 2C260.512 2.82843 261.183 3.5 262.012 3.5V0.5ZM267.989 3.5C268.817 3.5 269.489 2.82843 269.489 2C269.489 1.17157 268.817 0.5 267.989 0.5V3.5ZM273.966 0.5C273.138 0.5 272.466 1.17157 272.466 2C272.466 2.82843 273.138 3.5 273.966 3.5V0.5ZM279.943 3.5C280.772 3.5 281.443 2.82843 281.443 2C281.443 1.17157 280.772 0.5 279.943 0.5V3.5ZM285.921 0.5C285.092 0.5 284.421 1.17157 284.421 2C284.421 2.82843 285.092 3.5 285.921 3.5V0.5ZM291.898 3.5C292.726 3.5 293.398 2.82843 293.398 2C293.398 1.17157 292.726 0.5 291.898 0.5V3.5ZM297.875 0.5C297.047 0.5 296.375 1.17157 296.375 2C296.375 2.82843 297.047 3.5 297.875 3.5V0.5ZM303.852 3.5C304.681 3.5 305.352 2.82843 305.352 2C305.352 1.17157 304.681 0.5 303.852 0.5V3.5ZM309.83 0.5C309.001 0.5 308.33 1.17157 308.33 2C308.33 2.82843 309.001 3.5 309.83 3.5V0.5ZM315.807 3.5C316.635 3.5 317.307 2.82843 317.307 2C317.307 1.17157 316.635 0.5 315.807 0.5V3.5ZM321.784 0.5C320.956 0.5 320.284 1.17157 320.284 2C320.284 2.82843 320.956 3.5 321.784 3.5V0.5ZM327.761 3.5C328.59 3.5 329.261 2.82843 329.261 2C329.261 1.17157 328.59 0.5 327.761 0.5V3.5ZM333.739 0.5C332.91 0.5 332.239 1.17157 332.239 2C332.239 2.82843 332.91 3.5 333.739 3.5V0.5ZM339.716 3.5C340.544 3.5 341.216 2.82843 341.216 2C341.216 1.17157 340.544 0.5 339.716 0.5V3.5ZM345.693 0.5C344.865 0.5 344.193 1.17157 344.193 2C344.193 2.82843 344.865 3.5 345.693 3.5V0.5ZM351.67 3.5C352.499 3.5 353.17 2.82843 353.17 2C353.17 1.17157 352.499 0.5 351.67 0.5V3.5ZM357.648 0.5C356.819 0.5 356.148 1.17157 356.148 2C356.148 2.82843 356.819 3.5 357.648 3.5V0.5ZM363.625 3.5C364.453 3.5 365.125 2.82843 365.125 2C365.125 1.17157 364.453 0.5 363.625 0.5V3.5ZM369.602 0.5C368.774 0.5 368.102 1.17157 368.102 2C368.102 2.82843 368.774 3.5 369.602 3.5V0.5ZM375.58 3.5C376.408 3.5 377.08 2.82843 377.08 2C377.08 1.17157 376.408 0.5 375.58 0.5V3.5ZM381.557 0.5C380.728 0.5 380.057 1.17157 380.057 2C380.057 2.82843 380.728 3.5 381.557 3.5V0.5ZM387.534 3.5C388.362 3.5 389.034 2.82843 389.034 2C389.034 1.17157 388.362 0.5 387.534 0.5V3.5ZM393.511 0.5C392.683 0.5 392.011 1.17157 392.011 2C392.011 2.82843 392.683 3.5 393.511 3.5V0.5ZM399.441 3.69025C400.262 3.79741 401.015 3.21834 401.122 2.39687C401.229 1.57541 400.65 0.822609 399.829 0.715456L399.441 3.69025ZM406.262 2.43554C405.496 2.11821 404.619 2.48131 404.301 3.24655C403.984 4.01179 404.347 4.88939 405.112 5.20672L406.262 2.43554ZM410.197 8.14779C410.854 8.65258 411.795 8.52928 412.3 7.87241C412.805 7.21553 412.682 6.27382 412.025 5.76904L410.197 8.14779ZM416.731 10.4752C416.226 9.81832 415.284 9.69502 414.628 10.1998C413.971 10.7046 413.847 11.6463 414.352 12.3032L416.731 10.4752ZM417.293 17.3877C417.611 18.1529 418.488 18.516 419.253 18.1987C420.019 17.8814 420.382 17.0038 420.064 16.2385L417.293 17.3877ZM421.785 22.6714C421.677 21.8499 420.925 21.2708 420.103 21.378C419.282 21.4851 418.703 22.2379 418.81 23.0594L421.785 22.6714ZM419 28.9821C419 29.8106 419.672 30.4821 420.5 30.4821C421.328 30.4821 422 29.8106 422 28.9821H419ZM422 34.9464C422 34.118 421.328 33.4464 420.5 33.4464C419.672 33.4464 419 34.118 419 34.9464H422ZM419 40.9107C419 41.7391 419.672 42.4107 420.5 42.4107C421.328 42.4107 422 41.7391 422 40.9107H419ZM422 46.875C422 46.0466 421.328 45.375 420.5 45.375C419.672 45.375 419 46.0466 419 46.875H422ZM419 52.8393C419 53.6677 419.672 54.3393 420.5 54.3393C421.328 54.3393 422 53.6677 422 52.8393H419ZM422 58.8036C422 57.9751 421.328 57.3036 420.5 57.3036C419.672 57.3036 419 57.9751 419 58.8036H422ZM419 64.7679C419 65.5963 419.672 66.2679 420.5 66.2679C421.328 66.2679 422 65.5963 422 64.7679H419ZM422 70.7321C422 69.9037 421.328 69.2321 420.5 69.2321C419.672 69.2321 419 69.9037 419 70.7321H422ZM419 76.6964C419 77.5249 419.672 78.1964 420.5 78.1964C421.328 78.1964 422 77.5249 422 76.6964H419ZM422 82.6607C422 81.8323 421.328 81.1607 420.5 81.1607C419.672 81.1607 419 81.8323 419 82.6607H422ZM419 88.625C419 89.4534 419.672 90.125 420.5 90.125C421.328 90.125 422 89.4534 422 88.625H419ZM422 94.5893C422 93.7609 421.328 93.0893 420.5 93.0893C419.672 93.0893 419 93.7609 419 94.5893H422ZM419 100.554C419 101.382 419.672 102.054 420.5 102.054C421.328 102.054 422 101.382 422 100.554H419ZM422 106.518C422 105.689 421.328 105.018 420.5 105.018C419.672 105.018 419 105.689 419 106.518H422ZM419 112.482C419 113.311 419.672 113.982 420.5 113.982C421.328 113.982 422 113.311 422 112.482H419ZM422 118.446C422 117.618 421.328 116.946 420.5 116.946C419.672 116.946 419 117.618 419 118.446H422ZM419 124.411C419 125.239 419.672 125.911 420.5 125.911C421.328 125.911 422 125.239 422 124.411H419ZM422 130.375C422 129.547 421.328 128.875 420.5 128.875C419.672 128.875 419 129.547 419 130.375H422ZM419 136.339C419 137.168 419.672 137.839 420.5 137.839C421.328 137.839 422 137.168 422 136.339H419ZM422 142.304C422 141.475 421.328 140.804 420.5 140.804C419.672 140.804 419 141.475 419 142.304H422ZM419 148.268C419 149.096 419.672 149.768 420.5 149.768C421.328 149.768 422 149.096 422 148.268H419ZM422 154.232C422 153.404 421.328 152.732 420.5 152.732C419.672 152.732 419 153.404 419 154.232H422ZM419 160.196C419 161.025 419.672 161.696 420.5 161.696C421.328 161.696 422 161.025 422 160.196H419ZM422 166.161C422 165.332 421.328 164.661 420.5 164.661C419.672 164.661 419 165.332 419 166.161H422ZM419 172.125C419 172.953 419.672 173.625 420.5 173.625C421.328 173.625 422 172.953 422 172.125H419ZM422 178.089C422 177.261 421.328 176.589 420.5 176.589C419.672 176.589 419 177.261 419 178.089H422ZM419 184.054C419 184.882 419.672 185.554 420.5 185.554C421.328 185.554 422 184.882 422 184.054H419ZM422 190.018C422 189.189 421.328 188.518 420.5 188.518C419.672 188.518 419 189.189 419 190.018H422ZM2 3.5H4.98864V0.5H2V3.5ZM10.9659 3.5H16.9432V0.5H10.9659V3.5ZM22.9205 3.5H28.8977V0.5H22.9205V3.5ZM34.875 3.5H40.8523V0.5H34.875V3.5ZM46.8295 3.5H52.8068V0.5H46.8295V3.5ZM58.7841 3.5H64.7614V0.5H58.7841V3.5ZM70.7386 3.5H76.7159V0.5H70.7386V3.5ZM82.6932 3.5H88.6704V0.5H82.6932V3.5ZM94.6477 3.5H100.625V0.5H94.6477V3.5ZM106.602 3.5H112.58V0.5H106.602V3.5ZM118.557 3.5H124.534V0.5H118.557V3.5ZM130.511 3.5H136.489V0.5H130.511V3.5ZM142.466 3.5H148.443V0.5H142.466V3.5ZM154.42 3.5H160.398V0.5H154.42V3.5ZM166.375 3.5H172.352V0.5H166.375V3.5ZM178.33 3.5H184.307V0.5H178.33V3.5ZM190.284 3.5H196.261V0.5H190.284V3.5ZM202.239 3.5H208.216V0.5H202.239V3.5ZM214.193 3.5H220.171V0.5H214.193V3.5ZM226.148 3.5H232.125V0.5H226.148V3.5ZM238.102 3.5H244.08V0.5H238.102V3.5ZM250.057 3.5H256.034V0.5H250.057V3.5ZM262.012 3.5H267.989V0.5H262.012V3.5ZM273.966 3.5H279.943V0.5H273.966V3.5ZM285.921 3.5H291.898V0.5H285.921V3.5ZM297.875 3.5H303.852V0.5H297.875V3.5ZM309.83 3.5H315.807V0.5H309.83V3.5ZM321.784 3.5H327.761V0.5H321.784V3.5ZM333.739 3.5H339.716V0.5H333.739V3.5ZM345.693 3.5H351.67V0.5H345.693V3.5ZM357.648 3.5H363.625V0.5H357.648V3.5ZM369.602 3.5H375.58V0.5H369.602V3.5ZM381.557 3.5H387.534V0.5H381.557V3.5ZM393.511 3.5H396.5V0.5H393.511V3.5ZM396.5 3.5C397.497 3.5 398.479 3.5648 399.441 3.69025L399.829 0.715456C398.739 0.573263 397.627 0.5 396.5 0.5V3.5ZM405.112 5.20672C406.941 5.96492 408.648 6.95765 410.197 8.14779L412.025 5.76904C410.271 4.42098 408.335 3.29556 406.262 2.43554L405.112 5.20672ZM414.352 12.3032C415.542 13.8519 416.535 15.5593 417.293 17.3877L420.064 16.2385C419.204 14.1646 418.079 12.2294 416.731 10.4752L414.352 12.3032ZM418.81 23.0594C418.935 24.0212 419 25.0026 419 26H422C422 24.8725 421.927 23.7614 421.785 22.6714L418.81 23.0594ZM419 26V28.9821H422V26H419ZM419 34.9464V40.9107H422V34.9464H419ZM419 46.875V52.8393H422V46.875H419ZM419 58.8036V64.7679H422V58.8036H419ZM419 70.7321V76.6964H422V70.7321H419ZM419 82.6607V88.625H422V82.6607H419ZM419 94.5893V100.554H422V94.5893H419ZM419 106.518V112.482H422V106.518H419ZM419 118.446V124.411H422V118.446H419ZM419 130.375V136.339H422V130.375H419ZM419 142.304V148.268H422V142.304H419ZM419 154.232V160.196H422V154.232H419ZM419 166.161V172.125H422V166.161H419ZM419 178.089V184.054H422V178.089H419ZM419 190.018V193H422V190.018H419Z" fill="#A12844"></path></svg>