<svg xmlns="http://www.w3.org/2000/svg" width="18" height="131" viewBox="0 0 18 131" fill="none"><path d="M10.5 2V0.5H7.5V2H10.5ZM8 129.66C8.58579 130.246 9.41421 130.246 10 129.66L16.6603 123C17.246 122.414 17.246 121.586 16.6603 121L9 113.34L1.33975 121C0.75396 121.586 0.75396 122.414 1.33975 123L8 129.66ZM7.5 5C7.5 5.82843 8.17157 6.5 9 6.5C9.82843 6.5 10.5 5.82843 10.5 5H7.5ZM10.5 11C10.5 10.1716 9.82843 9.5 9 9.5C8.17157 9.5 7.5 10.1716 7.5 11H10.5ZM7.5 17C7.5 17.8284 8.17157 18.5 9 18.5C9.82843 18.5 10.5 17.8284 10.5 17H7.5ZM10.5 23C10.5 22.1716 9.82843 21.5 9 21.5C8.17157 21.5 7.5 22.1716 7.5 23H10.5ZM7.5 29C7.5 29.8284 8.17157 30.5 9 30.5C9.82843 30.5 10.5 29.8284 10.5 29H7.5ZM10.5 35C10.5 34.1716 9.82843 33.5 9 33.5C8.17157 33.5 7.5 34.1716 7.5 35H10.5ZM7.5 41C7.5 41.8284 8.17157 42.5 9 42.5C9.82843 42.5 10.5 41.8284 10.5 41H7.5ZM10.5 47C10.5 46.1716 9.82843 45.5 9 45.5C8.17157 45.5 7.5 46.1716 7.5 47H10.5ZM7.5 53C7.5 53.8284 8.17157 54.5 9 54.5C9.82843 54.5 10.5 53.8284 10.5 53H7.5ZM10.5 59C10.5 58.1716 9.82843 57.5 9 57.5C8.17157 57.5 7.5 58.1716 7.5 59H10.5ZM7.5 65C7.5 65.8284 8.17157 66.5 9 66.5C9.82843 66.5 10.5 65.8284 10.5 65H7.5ZM10.5 71C10.5 70.1716 9.82843 69.5 9 69.5C8.17157 69.5 7.5 70.1716 7.5 71H10.5ZM7.5 77C7.5 77.8284 8.17157 78.5 9 78.5C9.82843 78.5 10.5 77.8284 10.5 77H7.5ZM10.5 83C10.5 82.1716 9.82843 81.5 9 81.5C8.17157 81.5 7.5 82.1716 7.5 83H10.5ZM7.5 89C7.5 89.8284 8.17157 90.5 9 90.5C9.82843 90.5 10.5 89.8284 10.5 89H7.5ZM10.5 95C10.5 94.1716 9.82843 93.5 9 93.5C8.17157 93.5 7.5 94.1716 7.5 95H10.5ZM7.5 101C7.5 101.828 8.17157 102.5 9 102.5C9.82843 102.5 10.5 101.828 10.5 101H7.5ZM10.5 107C10.5 106.172 9.82843 105.5 9 105.5C8.17157 105.5 7.5 106.172 7.5 107H10.5ZM7.5 113C7.5 113.828 8.17157 114.5 9 114.5C9.82843 114.5 10.5 113.828 10.5 113H7.5ZM10.5 119C10.5 118.172 9.82843 117.5 9 117.5C8.17157 117.5 7.5 118.172 7.5 119H10.5ZM7.5 2V5H10.5V2H7.5ZM7.5 11V17H10.5V11H7.5ZM7.5 23V29H10.5V23H7.5ZM7.5 35V41H10.5V35H7.5ZM7.5 47V53H10.5V47H7.5ZM7.5 59V65H10.5V59H7.5ZM7.5 71V77H10.5V71H7.5ZM7.5 83V89H10.5V83H7.5ZM7.5 95V101H10.5V95H7.5ZM7.5 107V113H10.5V107H7.5ZM7.5 119V122H10.5V119H7.5Z" fill="#A12844"></path></svg>